<?xml version="1.0" standalone="no"?>
<!DOCTYPE svg PUBLIC "-//W3C//DTD SVG 20010904//EN"
 "http://www.w3.org/TR/2001/REC-SVG-20010904/DTD/svg10.dtd">
<svg version="1.0" xmlns="http://www.w3.org/2000/svg"
 width="1024.000000pt" height="1024.000000pt" viewBox="0 0 1024.000000 1024.000000"
 preserveAspectRatio="xMidYMid meet">

<g transform="translate(0.000000,1024.000000) scale(0.100000,-0.100000)"
fill="#000000" stroke="none">
<path d="M0 5120 l0 -5120 5120 0 5120 0 0 5120 0 5120 -5120 0 -5120 0 0
-5120z m5934 3225 c-7 -17 -20 -20 -29 -6 -3 5 3 12 12 14 10 3 19 5 20 6 1 0
0 -6 -3 -14z m-516 -7 c-2 -9 14 -13 52 -13 88 0 75 -19 -15 -22 -44 -1 -111
-4 -149 -6 -58 -4 -67 -2 -52 8 13 10 14 14 4 18 -9 4 -9 6 3 6 8 1 20 -4 27
-11 9 -9 12 -9 12 0 0 8 9 10 25 6 17 -4 25 -2 25 7 0 11 3 11 10 -1 6 -9 10
-10 10 -3 0 6 10 14 23 16 12 2 23 5 25 6 1 0 1 -5 0 -11z m876 -20 c-3 -4 4
-8 15 -8 12 0 21 5 21 12 0 6 3 8 6 5 4 -4 2 -13 -5 -20 -9 -12 -6 -13 15 -9
21 4 25 2 19 -9 -7 -12 -6 -12 7 -1 19 15 24 9 26 -33 1 -16 7 -34 14 -40 8
-7 9 -5 4 9 -5 16 -4 17 9 6 8 -7 15 -10 15 -6 0 3 12 1 27 -5 20 -7 28 -6 35
3 5 8 8 9 8 2 0 -6 12 -11 27 -11 15 0 29 -6 31 -12 3 -8 9 -8 23 -1 12 7 19
7 19 1 0 -6 16 -13 36 -17 19 -4 38 -12 40 -19 3 -7 21 -11 44 -10 33 2 38 -1
35 -16 -4 -22 5 -24 24 -6 11 10 13 10 7 0 -5 -9 0 -13 13 -13 11 0 22 -4 26
-10 3 -5 13 -6 22 -3 11 4 14 3 9 -6 -5 -8 -1 -14 13 -18 11 -3 19 -8 17 -12
-3 -4 7 -8 22 -9 15 -1 32 -9 38 -17 6 -8 17 -15 25 -15 11 0 11 2 -1 10 -9 6
-10 10 -3 10 6 0 15 -5 18 -10 4 -6 11 -8 16 -5 5 4 9 1 9 -5 0 -6 5 -8 10 -5
6 4 9 1 8 -6 -2 -7 2 -13 7 -14 6 0 16 -4 23 -8 7 -5 12 -3 12 5 1 7 7 2 14
-11 10 -18 15 -20 19 -10 4 10 6 9 6 -4 1 -10 6 -15 11 -12 6 3 10 1 10 -5 0
-6 6 -10 13 -9 28 3 39 -2 34 -16 -4 -8 -1 -17 5 -21 7 -4 8 -3 4 4 -4 7 -1
12 9 12 9 0 14 -4 11 -9 -4 -5 13 -13 36 -17 35 -5 39 -8 23 -15 -11 -4 -14
-8 -7 -10 13 -2 28 -5 40 -9 4 -1 11 -2 15 -1 4 1 10 -6 13 -14 3 -8 10 -12
15 -9 5 3 9 0 9 -5 0 -6 3 -10 8 -9 13 5 77 -26 94 -44 11 -14 18 -16 23 -7 6
8 10 7 17 -4 5 -9 15 -14 22 -11 8 3 17 0 22 -7 4 -8 3 -10 -4 -5 -7 4 -12 5
-12 1 0 -3 10 -9 23 -14 16 -6 24 -4 29 8 5 12 7 11 7 -6 1 -14 6 -21 14 -17
8 3 20 -2 27 -11 7 -8 20 -15 29 -15 9 0 22 -5 29 -12 7 -7 12 -8 12 -4 0 5
-7 14 -15 20 -13 9 -10 11 13 12 18 1 29 -4 29 -13 0 -7 -4 -13 -9 -13 -5 0
-6 -4 -3 -10 3 -5 13 -10 21 -10 8 0 12 4 9 10 -3 6 1 7 10 4 9 -4 14 -13 11
-20 -3 -8 0 -11 10 -7 8 3 20 0 28 -6 7 -6 16 -7 20 -3 4 4 6 0 4 -8 -2 -8 4
-15 13 -15 9 0 23 -6 31 -13 8 -6 18 -9 21 -5 4 3 9 -2 13 -11 5 -12 10 -14
19 -6 9 7 16 6 25 -5 7 -8 17 -12 23 -8 5 3 7 1 4 -4 -8 -12 30 -49 40 -40 3
4 1 7 -5 7 -7 0 -12 5 -12 12 0 7 15 -2 33 -20 30 -29 33 -30 44 -14 9 13 11
13 7 1 -3 -10 6 -19 31 -29 19 -7 35 -18 35 -24 0 -5 3 -6 6 -3 4 4 15 -3 25
-14 9 -11 20 -20 23 -20 21 3 49 -1 39 -6 -9 -3 -10 -9 -1 -23 9 -14 16 -16
25 -9 9 8 11 4 7 -18 -4 -27 -4 -27 12 -8 16 19 16 19 10 -8 -5 -19 -3 -26 4
-22 5 3 10 1 10 -5 0 -6 5 -8 12 -4 7 5 9 2 6 -7 -4 -10 1 -15 15 -16 11 -1
25 -7 31 -13 8 -8 6 -9 -9 -5 -19 6 -20 6 -1 -9 10 -8 23 -17 29 -19 6 -2 11
-14 12 -28 1 -13 7 -24 14 -24 14 0 32 -26 25 -37 -3 -5 -2 -8 3 -7 4 1 15 1
23 0 12 -1 13 -3 1 -10 -11 -7 -9 -10 8 -16 12 -3 19 -10 16 -15 -3 -4 2 -11
11 -14 8 -3 12 -11 8 -17 -4 -8 -3 -9 4 -5 7 4 12 1 12 -9 0 -9 4 -14 9 -10 5
3 12 -3 16 -14 3 -10 17 -31 30 -45 13 -14 19 -26 14 -26 -6 0 -7 -5 -4 -10 4
-6 11 -8 16 -4 6 3 7 -4 4 -19 -4 -14 -2 -28 3 -31 6 -4 8 2 5 14 -3 12 0 20
7 20 6 0 14 -9 17 -20 3 -11 12 -20 20 -20 8 0 13 -8 11 -19 -2 -10 8 -28 22
-41 14 -12 19 -18 11 -14 -10 5 -12 3 -7 -5 5 -7 14 -10 20 -8 7 3 13 -1 13
-9 0 -7 -4 -11 -9 -8 -5 4 -4 -3 3 -14 7 -12 19 -18 28 -14 10 4 13 1 8 -11
-4 -11 -1 -17 8 -17 8 0 15 -5 15 -11 0 -5 -5 -7 -11 -3 -7 4 -7 -1 1 -16 7
-13 17 -19 26 -16 12 4 14 1 9 -14 -5 -14 -3 -18 8 -14 7 2 20 -2 27 -11 12
-14 11 -18 -1 -27 -11 -7 -11 -11 -1 -15 6 -2 10 -9 7 -14 -4 -5 0 -6 8 -3 8
3 20 -3 28 -13 13 -17 13 -17 -5 -3 -19 15 -19 15 0 -15 10 -16 23 -33 29 -37
6 -5 6 -8 0 -8 -5 0 2 -10 16 -23 14 -12 24 -27 22 -34 -2 -6 1 -15 8 -19 7
-4 9 -3 6 3 -3 5 0 10 7 10 7 0 13 -6 13 -14 0 -7 -6 -13 -14 -13 -7 0 -13 -4
-13 -9 0 -4 12 -7 28 -5 25 2 26 2 8 -11 -18 -13 -17 -14 8 -21 15 -3 26 -13
26 -23 0 -14 -2 -14 -11 -1 -9 13 -10 13 -6 0 2 -8 11 -14 19 -14 8 1 15 -5
16 -12 1 -8 3 -21 4 -29 1 -12 4 -12 16 -2 13 10 14 9 5 -6 -7 -13 -5 -32 5
-63 13 -38 17 -43 30 -32 13 11 14 11 7 -1 -6 -11 -4 -13 10 -7 18 6 18 6 -1
-15 -10 -12 -13 -19 -6 -15 14 8 17 -10 2 -19 -12 -7 -58 16 -99 50 -17 15
-36 23 -42 19 -7 -4 -9 -3 -6 3 4 6 -1 17 -10 24 -12 10 -14 10 -9 2 4 -7 2
-13 -3 -13 -6 0 -11 6 -11 14 0 16 -26 39 -46 42 -17 3 -19 -22 -3 -32 6 -3
15 -1 19 6 5 8 10 9 14 2 3 -6 0 -12 -6 -15 -8 -3 24 -41 79 -93 66 -65 94
-100 103 -129 18 -58 59 -135 71 -135 6 0 8 -7 5 -16 -3 -8 -2 -13 3 -10 15 9
22 -25 9 -41 -10 -12 -9 -17 2 -27 8 -6 17 -20 18 -31 2 -11 7 -21 12 -23 4
-2 6 -12 3 -22 -5 -20 30 -74 41 -63 3 3 6 -3 6 -15 0 -12 6 -22 13 -23 9 0 9
-2 -1 -6 -10 -4 -9 -9 5 -19 17 -13 17 -14 -1 -7 -14 4 -17 2 -14 -8 3 -8 12
-13 19 -11 8 2 11 0 7 -4 -4 -4 -2 -14 5 -22 10 -13 9 -14 -3 -7 -12 7 -13 6
-3 -7 7 -8 10 -18 6 -21 -3 -4 -1 -7 5 -7 7 0 12 -7 12 -15 0 -8 6 -15 13 -16
9 0 9 -2 0 -5 -17 -7 -4 -34 16 -35 12 0 12 -2 -4 -9 -11 -5 -15 -9 -8 -9 6
-1 10 -10 8 -21 -2 -11 0 -22 4 -24 5 -3 -42 -57 -103 -119 -61 -63 -113 -113
-115 -111 -2 2 12 25 32 51 45 62 79 131 72 143 -3 6 -3 10 2 10 4 0 9 14 10
30 2 29 -10 40 -22 20 -3 -5 0 -10 7 -10 9 0 10 -3 2 -8 -6 -4 -15 -23 -19
-42 -7 -32 -52 -100 -66 -100 -4 0 0 28 8 63 15 69 30 346 18 334 -5 -4 -10
-46 -11 -95 -2 -48 -10 -107 -18 -132 l-14 -45 -2 50 c-2 28 -5 39 -7 25 -2
-14 -9 -41 -16 -60 -6 -19 -10 -41 -8 -49 1 -7 -2 -10 -9 -6 -7 4 -14 -2 -17
-14 -3 -12 -10 -21 -16 -21 -6 0 -7 -3 -4 -6 4 -4 -2 -19 -13 -34 -11 -16 -20
-33 -20 -39 0 -6 -4 -11 -8 -11 -5 0 -17 -18 -28 -40 -28 -59 -50 -53 -58 18
-7 67 -8 411 0 462 13 97 16 122 18 205 4 122 3 116 30 111 22 -4 24 -1 19 25
-5 34 10 38 31 7 9 -12 16 -17 16 -10 0 6 8 12 18 13 9 0 12 3 5 5 -7 3 -9 12
-6 20 3 8 1 14 -5 14 -6 0 -31 31 -57 69 -25 39 -59 81 -75 95 -17 14 -30 29
-30 34 0 5 -7 15 -15 22 -12 10 -12 7 1 -19 9 -17 20 -31 25 -31 6 0 7 -5 4
-10 -4 -6 0 -21 8 -33 15 -24 60 -157 54 -163 -2 -2 -11 19 -21 46 -10 28 -22
50 -27 50 -5 0 -8 5 -6 12 1 7 -3 12 -10 13 -6 0 -15 3 -19 8 -13 13 -43 7
-54 -10 -11 -17 -11 -17 -6 1 5 15 2 17 -14 13 -13 -3 -23 0 -27 9 -3 8 -9 11
-14 8 -5 -3 -9 0 -9 6 0 6 -5 8 -10 5 -6 -4 -9 -3 -8 2 4 12 -60 78 -68 70 -4
-4 -12 0 -18 9 -14 18 -102 25 -116 9 -6 -7 -13 -33 -16 -58 -4 -28 -11 -44
-17 -40 -6 4 -7 -4 -3 -23 23 -88 38 -174 37 -214 0 -30 3 -40 9 -31 5 10 8
-5 8 -41 -1 -57 21 -108 58 -139 35 -29 44 -69 54 -234 9 -161 -2 -494 -17
-519 -14 -21 -18 51 -13 214 5 154 -3 410 -15 472 -8 43 -22 73 -39 87 -20 16
-20 13 -2 -30 31 -76 44 -412 26 -674 -4 -66 -7 -121 -5 -123 6 -6 34 11 30
18 -3 5 0 12 6 16 8 4 9 3 5 -4 -9 -15 6 -15 38 -1 14 7 23 16 20 20 -2 4 17
17 43 29 26 11 51 26 55 33 6 9 8 9 8 0 0 -12 -91 -77 -148 -107 -19 -10 -30
-21 -26 -28 5 -7 2 -8 -6 -3 -10 6 -12 4 -7 -9 4 -9 3 -15 -1 -12 -5 3 -25
-63 -47 -147 -75 -300 -151 -517 -241 -686 -18 -35 -30 -69 -27 -75 3 -6 3 -8
-2 -4 -5 5 -15 -1 -23 -13 -28 -40 -30 -41 240 119 42 26 74 50 71 56 -3 5 -1
6 5 2 21 -13 157 88 145 107 -4 6 0 8 9 5 9 -4 15 0 15 8 0 9 -6 13 -16 9 -11
-4 -10 -1 4 15 10 11 14 20 9 20 -5 1 1 9 13 19 12 10 23 31 25 47 2 16 9 34
16 39 7 6 12 15 11 20 -4 17 14 59 101 238 29 59 56 107 62 107 5 0 7 -39 5
-95 -2 -52 0 -95 5 -95 4 0 22 15 39 33 l31 32 -16 -30 c-32 -63 -67 -140 -63
-135 18 18 107 134 107 139 0 3 11 19 24 34 14 16 43 60 67 98 40 67 66 98 52
64 -3 -9 -7 -24 -8 -33 -3 -36 -18 -78 -34 -96 -9 -11 -10 -16 -3 -12 16 9 15
-4 -2 -26 -7 -10 -17 -14 -21 -10 -5 4 -5 2 -2 -5 10 -16 -3 -44 -16 -36 -6 3
-7 1 -3 -6 4 -6 4 -17 -2 -24 -5 -7 -8 -24 -7 -39 1 -15 -2 -25 -6 -22 -5 3
-11 -7 -15 -21 -4 -18 -11 -24 -21 -20 -12 4 -14 0 -9 -22 13 -53 14 -128 3
-142 -9 -11 -9 -13 -1 -8 7 4 14 0 18 -8 6 -17 -9 -29 -26 -19 -7 4 -8 3 -4
-4 4 -7 14 -12 22 -12 13 0 13 -2 -1 -16 -9 -9 -19 -14 -22 -10 -6 6 -47 -73
-45 -86 1 -5 -1 -7 -6 -5 -4 1 -9 -2 -10 -8 -2 -5 -19 -23 -37 -40 -18 -16
-54 -57 -80 -90 -113 -140 -187 -225 -215 -245 -17 -12 -27 -27 -24 -33 4 -7
4 -9 -1 -5 -4 4 -28 -9 -54 -30 -54 -43 -62 -53 -54 -66 3 -5 1 -6 -6 -2 -7 5
-43 -22 -94 -71 -73 -70 -247 -211 -247 -200 0 3 32 31 71 62 85 69 240 213
253 235 5 8 -2 6 -15 -6 -13 -12 -29 -20 -35 -17 -6 2 -19 -6 -29 -17 -20 -22
-44 -28 -26 -6 6 8 -25 -4 -69 -26 -45 -22 -84 -38 -87 -35 -3 3 13 15 35 26
71 36 158 93 132 86 -30 -8 -153 -58 -230 -93 -30 -14 -84 -37 -120 -52 -36
-15 -141 -60 -235 -100 -359 -154 -717 -276 -1115 -380 -81 -21 -86 -22 -70
-10 18 14 -1 11 -150 -25 -133 -32 -268 -57 -278 -51 -4 2 -57 -4 -117 -14
-144 -24 -272 -34 -231 -19 21 9 25 14 15 20 -10 6 -7 9 11 9 20 0 22 2 10 10
-12 7 -8 10 14 10 16 0 26 3 23 7 -8 8 -142 6 -171 -3 -14 -4 -18 -3 -11 4 6
5 62 19 125 31 63 12 176 35 250 51 74 16 200 41 280 55 285 51 729 172 869
237 36 16 104 43 151 59 47 17 99 36 115 44 35 16 88 36 95 37 3 0 14 5 25 11
11 6 26 12 33 13 8 1 21 6 30 10 9 4 19 8 22 9 38 13 194 86 200 94 3 3 36 21
73 39 76 37 167 92 153 92 -6 0 -1 7 10 15 18 15 -3 5 -197 -96 -91 -47 -129
-62 -129 -51 0 4 15 13 33 21 17 8 34 18 37 21 3 4 38 24 78 44 80 40 212 122
212 132 0 3 -15 -4 -32 -16 -18 -12 -53 -31 -78 -42 -25 -12 -46 -25 -48 -29
-2 -5 -10 -9 -17 -9 -8 0 -34 -11 -59 -24 -26 -14 -46 -22 -46 -19 0 3 -6 0
-14 -6 -8 -7 -27 -16 -43 -21 -33 -10 -90 -32 -228 -89 -55 -22 -91 -34 -81
-26 11 8 24 15 28 15 5 0 52 20 105 45 52 25 97 45 100 45 12 0 182 104 180
111 -1 4 7 15 18 23 11 9 -47 -17 -130 -58 -407 -200 -811 -353 -1194 -452
-74 -19 -138 -37 -141 -39 -4 -3 -113 -31 -242 -64 -264 -68 -505 -114 -683
-131 -66 -6 -132 -13 -147 -15 -14 -1 -48 8 -74 21 -61 31 -129 31 -240 2 -81
-21 -90 -22 -236 -10 -177 15 -428 46 -543 67 -131 24 -559 165 -760 249 -245
104 -508 262 -664 401 l-35 30 36 -43 c82 -99 367 -300 538 -380 153 -72 234
-100 670 -231 175 -53 270 -76 405 -99 94 -16 106 -20 80 -27 -39 -11 -103 -7
-184 11 -35 8 -65 13 -68 11 -6 -7 133 -35 210 -43 37 -3 67 -11 67 -16 0 -6
7 -7 16 -4 9 4 13 2 8 -5 -4 -8 -31 -9 -78 -6 -72 6 -65 3 43 -19 20 -4 22 -7
10 -15 -9 -6 -10 -9 -1 -9 22 0 13 -20 -10 -21 -14 -1 -7 -5 16 -10 54 -13 59
-21 11 -15 -90 12 -190 15 -170 6 33 -16 -66 -1 -239 36 -123 26 -162 31 -168
21 -5 -8 5 -16 30 -23 63 -20 15 -15 -71 7 -103 26 -397 108 -417 116 -8 3
-46 7 -85 8 -38 1 -97 9 -130 18 -33 8 -73 18 -90 21 l-30 6 25 -15 25 -16
-25 7 c-14 3 -30 11 -37 16 -7 5 -14 5 -17 -1 -4 -5 20 -31 51 -56 32 -26 85
-73 118 -105 33 -32 76 -67 95 -79 46 -28 33 -27 -33 3 -79 35 -287 177 -347
237 -50 49 -53 46 -12 -11 16 -22 16 -23 0 -18 -9 4 -18 2 -20 -4 -3 -7 -11
-9 -20 -6 -10 4 -17 26 -22 63 -7 61 -13 72 -121 203 -87 107 -104 133 -98
148 3 8 10 11 15 8 6 -4 7 -9 0 -13 -5 -3 4 -19 21 -36 l30 -30 -21 29 c-12
15 -20 32 -17 36 2 4 -12 22 -33 41 -25 23 -29 25 -13 7 14 -16 20 -28 15 -28
-12 0 -38 40 -39 60 0 8 -7 14 -15 12 -8 -2 -12 0 -7 4 4 4 -7 23 -25 42 -20
21 -26 33 -16 29 11 -4 0 19 -31 61 -93 129 -191 318 -176 342 3 4 -1 11 -7
13 -9 4 -9 6 -1 6 6 1 33 -38 59 -86 26 -49 61 -109 79 -135 38 -57 121 -132
135 -123 8 5 6 13 -6 26 -9 10 -14 19 -10 19 3 0 -1 15 -11 33 -9 17 -16 34
-16 37 1 3 -30 48 -68 100 -39 52 -89 131 -111 174 -51 101 -120 279 -105 269
7 -4 4 5 -6 20 -10 15 -15 33 -11 39 4 6 3 9 -2 5 -5 -3 -9 14 -9 36 -1 23 -4
55 -9 71 -6 24 -9 27 -17 15 -7 -10 -9 -5 -5 19 2 17 1 30 -3 27 -11 -6 -52
242 -61 370 -10 136 -4 517 9 605 5 36 13 90 16 120 4 30 20 120 35 200 62
313 129 526 231 735 70 145 89 177 191 327 168 245 320 417 524 588 88 73 105
85 127 81 4 0 6 5 5 11 -2 7 2 12 9 11 7 -2 25 9 40 24 15 14 22 23 14 18 -10
-6 -12 -4 -7 4 5 7 15 10 23 7 10 -4 13 -2 10 8 -3 8 1 17 9 20 10 4 13 2 8
-7 -4 -6 2 -4 13 6 11 9 25 17 31 17 7 0 12 5 12 10 0 6 5 10 11 10 20 0 129
71 124 81 -4 5 1 6 9 3 9 -3 16 -1 16 5 0 7 35 28 78 47 42 20 91 42 107 49
74 34 166 74 173 75 4 1 27 10 51 21 25 11 56 22 70 26 13 3 36 12 50 19 14 8
38 14 53 14 14 0 28 4 30 8 5 12 157 54 168 47 6 -4 10 -2 10 3 0 12 225 60
363 77 334 41 712 40 889 -1 13 -3 43 -8 68 -11 84 -8 419 -97 473 -125 9 -5
17 -5 17 0 0 9 -85 36 -359 117 -85 25 -157 47 -160 50 -3 4 1 10 9 15 19 12
65 4 158 -26 40 -13 88 -24 106 -24 30 0 35 4 40 28 8 43 5 102 -6 102 -7 0
-6 5 1 13 12 15 44 19 35 5z m-1067 -24 c-3 -3 -12 -4 -19 -1 -8 3 -5 6 6 6
11 1 17 -2 13 -5z m2428 -583 c-6 -5 -25 10 -25 20 0 5 6 4 14 -3 8 -7 12 -15
11 -17z m399 -177 c3 -8 2 -12 -4 -9 -6 3 -10 10 -10 16 0 14 7 11 14 -7z
m421 -362 c-3 -3 -11 0 -18 7 -9 10 -8 11 6 5 10 -3 15 -9 12 -12z m683 -1012
c-7 -10 -14 -17 -17 -15 -4 4 18 35 25 35 2 0 -1 -9 -8 -20z m-6701 -32 c-3
-7 -5 -2 -5 12 0 14 2 19 5 13 2 -7 2 -19 0 -25z m6414 -22 c5 3 9 -2 9 -11 0
-13 -4 -14 -20 -5 -12 6 -18 16 -13 23 5 8 8 8 11 -1 2 -7 8 -10 13 -6z
m-6436 -13 c-2 -10 -8 -29 -14 -43 -8 -21 -10 -22 -11 -5 0 11 -4 16 -8 10
-13 -19 -30 -15 -25 6 4 15 40 45 60 49 1 0 0 -8 -2 -17z m-25 -170 c-6 -32
-14 -68 -16 -80 -2 -13 -13 -23 -27 -25 -15 -2 -21 -9 -19 -21 2 -10 -3 -16
-10 -15 -7 2 -12 -2 -11 -9 3 -16 -24 -37 -32 -23 -3 5 2 10 12 11 11 0 13 3
5 6 -10 4 -9 9 5 20 13 10 15 16 6 19 -7 3 -13 12 -13 20 0 8 -5 14 -12 14 -6
0 -1 9 12 20 13 11 27 20 32 20 16 0 21 -32 7 -41 -11 -7 -11 -9 4 -9 10 0 17
7 17 18 0 14 2 15 10 2 8 -13 10 -13 10 2 0 9 -5 18 -12 20 -8 3 -6 18 10 51
12 26 22 52 22 59 0 6 3 9 6 5 3 -3 0 -32 -6 -64z m-41 -2 c-14 -31 -59 -50
-59 -24 0 8 5 11 10 8 6 -3 10 -1 10 4 0 6 6 11 14 11 7 0 16 10 19 22 4 12 9
19 13 16 3 -4 0 -20 -7 -37z m82 -92 c-5 -26 -9 -34 -10 -19 -1 27 9 73 15 67
2 -2 0 -23 -5 -48z m6126 19 c-3 -8 -6 -5 -6 6 -1 11 2 17 5 13 3 -3 4 -12 1
-19z m633 -28 c0 -5 -5 -10 -11 -10 -5 0 -7 5 -4 10 3 6 8 10 11 10 2 0 4 -4
4 -10z m-6822 -22 c-6 -18 -25 -21 -25 -3 0 8 7 15 15 15 7 0 12 -5 10 -12z
m6263 -66 c-7 -2 -18 1 -23 6 -8 8 -4 9 13 5 13 -4 18 -8 10 -11z m604 -22
c-3 -5 -12 -10 -18 -10 -7 0 -6 4 3 10 19 12 23 12 15 0z m-511 -156 c2 -22 5
-68 7 -104 l2 -65 8 55 c10 81 -1 -208 -13 -315 -11 -105 -13 -114 -23 -137
-13 -31 -27 -8 -21 36 10 81 27 499 21 527 -6 27 1 56 11 46 3 -3 7 -22 8 -43z
m33 -11 c-3 -10 -5 -4 -5 12 0 17 2 24 5 18 2 -7 2 -21 0 -30z m423 -277 c0
-3 -4 -8 -10 -11 -5 -3 -10 -1 -10 4 0 6 5 11 10 11 6 0 10 -2 10 -4z m-6713
-828 c-3 -8 -6 -5 -6 6 -1 11 2 17 5 13 3 -3 4 -12 1 -19z m10 -40 c-3 -8 -6
-5 -6 6 -1 11 2 17 5 13 3 -3 4 -12 1 -19z m6592 -249 c-10 -6 -10 -9 -2 -9 7
0 15 -11 19 -25 3 -14 11 -22 17 -18 5 3 7 2 4 -3 -3 -6 -2 -16 3 -24 5 -8 3
-22 -6 -35 -13 -20 -13 -23 1 -28 11 -5 13 -12 6 -29 -9 -26 -4 -48 10 -48 6
0 7 4 4 10 -4 6 1 7 11 3 11 -4 13 -8 6 -11 -7 -2 -12 -13 -12 -25 0 -20 0
-20 15 -1 14 18 14 18 8 -3 -3 -13 -13 -24 -22 -24 -14 -1 -14 -2 1 -6 9 -2
19 -11 22 -19 3 -9 1 -12 -4 -9 -16 10 -12 -12 6 -29 18 -19 4 -22 -15 -3 -10
8 -12 8 -7 0 3 -6 2 -14 -4 -18 -5 -3 -10 -11 -10 -16 0 -6 4 -8 9 -5 5 3 11
-1 15 -9 3 -8 0 -17 -6 -21 -7 -5 -8 -2 -3 6 6 9 4 11 -5 5 -10 -6 -9 -11 4
-21 10 -7 15 -18 11 -24 -6 -9 -10 -9 -17 1 -5 9 -7 -1 -4 -28 2 -24 0 -43 -5
-43 -6 0 -7 -5 -4 -10 4 -6 11 -7 17 -4 7 4 8 2 4 -5 -4 -6 -12 -9 -17 -6 -5
4 -6 -2 -2 -11 5 -13 3 -16 -10 -11 -12 4 -15 1 -11 -16 3 -12 6 -29 8 -37 2
-8 -4 -20 -13 -27 -9 -7 -11 -13 -4 -13 13 0 5 -40 -9 -40 -5 0 -6 -5 -3 -10
7 -11 -33 -88 -64 -124 -9 -11 -10 -16 -3 -12 14 8 17 -10 2 -19 -5 -3 -10
-11 -10 -16 0 -6 4 -7 10 -4 6 3 7 -1 4 -9 -3 -9 -9 -14 -13 -12 -4 3 -13 1
-21 -5 -12 -7 -11 -9 5 -9 20 -1 20 -1 1 -15 -11 -8 -15 -15 -8 -15 7 0 3 -14
-9 -35 -12 -19 -26 -32 -32 -28 -6 3 -7 1 -3 -5 11 -18 56 7 49 26 -4 10 -2
13 6 8 6 -4 10 -4 9 1 -5 16 58 100 68 90 21 -20 -255 -450 -282 -440 -10 4
-11 10 -3 24 5 11 7 25 3 31 -4 6 -3 8 3 5 6 -4 13 0 16 8 4 9 1 12 -9 8 -7
-3 -14 0 -14 7 0 6 -4 9 -9 5 -5 -3 -17 2 -26 11 -12 13 -19 14 -28 5 -8 -8
-8 -11 1 -11 7 0 12 -5 12 -11 0 -5 -5 -7 -10 -4 -6 4 -17 1 -25 -5 -12 -10
-18 -10 -29 -1 -10 8 -16 9 -21 1 -3 -6 -11 -8 -16 -5 -5 4 -9 1 -9 -4 0 -6
-7 -11 -15 -11 -8 0 -15 -5 -15 -11 0 -5 -4 -7 -10 -4 -5 3 -10 0 -11 -7 0 -8
-2 -9 -5 -2 -4 10 -123 -22 -156 -42 -19 -12 -39 -14 -32 -3 3 5 -2 9 -11 9
-10 0 -13 -5 -9 -12 5 -7 0 -9 -14 -6 -13 4 -20 2 -19 -6 1 -6 -9 -12 -23 -13
-81 -7 -168 -27 -183 -42 -6 -6 -20 -11 -31 -11 -12 0 -34 -7 -50 -15 -15 -8
-37 -15 -47 -15 -10 0 -21 -4 -24 -10 -3 -5 -30 -10 -60 -10 -30 0 -57 -4 -60
-10 -3 -5 -19 -10 -34 -10 -15 0 -31 -3 -35 -7 -4 -5 -20 -9 -34 -10 -15 -1
-74 -11 -132 -22 -167 -33 -310 -52 -660 -90 -226 -25 -288 -28 -605 -35 -218
-4 -232 -3 -110 5 599 40 975 85 1365 163 250 50 608 165 780 250 184 91 229
124 375 270 202 203 247 271 290 439 28 110 34 160 35 295 1 101 -7 186 -20
212 -9 19 -1 42 12 34 6 -4 5 -10 -3 -15z m-6510 -119 c0 -10 -3 -8 -9 5 -12
27 -12 43 0 25 5 -8 9 -22 9 -30z m6561 -460 c0 -5 -2 -10 -4 -10 -3 0 -8 5
-11 10 -3 6 -1 10 4 10 6 0 11 -4 11 -10z m-1265 -20 c-4 -6 -13 -9 -20 -6 -7
2 -16 2 -19 -2 -4 -3 -19 -7 -34 -9 l-27 -2 24 10 c14 5 33 11 43 12 9 2 21 6
24 10 11 10 17 0 9 -13z m-105 -24 c0 -3 -4 -8 -10 -11 -5 -3 -10 -1 -10 4 0
6 5 11 10 11 6 0 10 -2 10 -4z m-40 -11 c0 -2 -10 -9 -22 -15 -22 -11 -22 -10
-4 4 21 17 26 19 26 11z m-5104 -60 c-3 -9 0 -15 10 -15 8 0 13 -4 10 -9 -3
-5 1 -11 9 -15 8 -3 15 -16 15 -29 0 -13 3 -27 7 -31 4 -3 8 -16 10 -29 2 -12
8 -26 13 -31 6 -6 10 -17 10 -27 0 -9 9 -28 20 -41 10 -14 16 -28 13 -32 -3
-3 -1 -6 5 -6 16 0 26 21 14 29 -6 4 -7 12 -3 20 6 9 17 -4 39 -41 31 -56 130
-155 236 -235 98 -74 315 -171 506 -226 30 -9 84 -25 120 -36 74 -23 173 -42
342 -67 64 -10 115 -20 113 -23 -1 -3 27 -7 63 -9 37 -1 80 -6 97 -11 40 -13
220 -28 500 -42 148 -7 233 -16 237 -23 4 -6 8 -8 8 -4 1 60 87 351 102 342 4
-3 8 -11 8 -19 0 -7 14 -16 30 -20 17 -4 30 -13 30 -21 0 -7 13 -20 28 -28 15
-8 33 -26 39 -39 9 -20 17 -23 39 -19 l27 5 -7 -59 c-4 -32 -16 -119 -27 -192
-10 -74 -19 -154 -19 -178 0 -24 -8 -65 -19 -91 -32 -85 -34 -100 -8 -106 12
-2 39 -12 60 -21 20 -9 37 -12 37 -7 0 5 -8 12 -17 14 -11 3 -6 5 12 7 17 1
24 4 15 7 -17 7 -40 29 -40 39 0 3 6 2 13 -3 6 -6 28 -13 48 -16 85 -13 321
-152 290 -171 -6 -4 4 -21 22 -40 21 -22 36 -31 42 -25 6 7 5 13 -5 20 -13 9
-13 10 0 6 8 -2 14 -13 13 -25 -2 -19 13 -28 67 -38 8 -2 31 -6 50 -11 19 -4
48 -7 65 -8 28 0 30 -3 37 -45 7 -50 11 -486 3 -479 -2 3 -5 19 -7 37 -2 24
-5 29 -15 20 -7 -6 -13 -7 -14 -2 0 5 -4 0 -9 -11 -7 -17 -9 -17 -9 -3 -1 10
-5 17 -10 15 -11 -2 -111 118 -111 133 0 6 -4 10 -10 10 -5 0 -10 7 -10 15 0
8 -9 19 -20 25 -11 6 -23 22 -26 35 -3 14 -10 25 -15 25 -5 0 -9 7 -9 16 0 8
-5 12 -11 8 -8 -4 -9 1 -5 17 3 13 3 18 0 12 -8 -18 -27 -16 -21 1 4 10 1 13
-9 9 -9 -3 -14 1 -15 13 0 12 -3 14 -6 6 -3 -7 3 -24 12 -39 26 -39 1 -20
-105 82 -52 50 -136 131 -186 178 -50 48 -100 104 -110 125 -10 20 -20 39 -21
41 -1 2 -18 -12 -37 -31 -20 -19 -51 -43 -71 -54 -19 -10 -35 -24 -35 -30 0
-7 -6 -15 -12 -18 -7 -3 3 -3 22 0 24 3 30 2 20 -4 -8 -5 -42 -13 -75 -17 -33
-4 -74 -13 -90 -20 -17 -6 -56 -15 -87 -19 -52 -7 -58 -5 -68 15 -11 20 -11
21 11 15 74 -23 75 -22 34 23 -21 22 -41 39 -43 36 -3 -3 3 -14 14 -26 19 -21
19 -21 -6 -18 -22 4 -25 9 -27 47 -2 36 1 43 14 38 13 -5 14 -4 4 8 -21 25 29
106 104 170 37 31 70 56 76 56 5 0 9 13 9 30 0 16 9 68 20 115 11 47 20 89 20
93 0 4 -35 5 -77 4 -95 -5 -532 14 -778 33 -99 8 -183 11 -187 7 -5 -5 61 -16
145 -25 197 -23 287 -38 287 -49 0 -5 5 -6 11 -3 15 10 82 13 94 4 6 -4 21 -9
35 -12 14 -3 -21 -4 -77 -3 -57 2 -105 0 -109 -3 -3 -3 -28 -7 -56 -8 -28 -1
-54 -6 -57 -11 -3 -6 -67 -13 -141 -16 -74 -3 -163 -7 -197 -9 -35 -2 -63 -1
-63 2 0 14 -91 5 -100 -9 -10 -16 -70 -21 -64 -5 3 6 -26 10 -71 11 -42 1 -73
-2 -68 -6 4 -3 37 -19 73 -34 84 -37 88 -41 51 -60 -31 -16 -42 -48 -20 -61 6
-4 8 -14 4 -23 -3 -8 0 -19 7 -23 9 -6 7 -14 -8 -31 -28 -31 -41 -53 -25 -43
10 6 11 3 1 -15 -15 -27 -74 -53 -103 -44 -12 3 -37 17 -55 31 -17 13 -37 21
-42 18 -5 -3 -7 0 -5 7 3 8 -5 23 -18 35 l-24 20 -76 -25 c-76 -25 -105 -47
-47 -35 38 7 41 -14 3 -23 -27 -6 -217 -97 -238 -114 -5 -4 -26 -17 -46 -28
-73 -40 -84 -47 -89 -52 -3 -3 -25 -18 -50 -34 -48 -31 -110 -88 -110 -101 0
-4 -8 -14 -17 -21 -10 -7 -13 -14 -7 -14 6 0 28 15 50 33 62 53 191 139 284
191 47 25 92 51 100 55 34 21 115 53 153 61 23 5 59 13 80 18 22 6 39 6 43 1
3 -5 13 -8 22 -7 13 2 24 -19 49 -92 18 -52 32 -112 33 -132 0 -21 4 -38 8
-38 9 0 32 -111 35 -167 1 -18 6 -33 11 -33 4 0 5 -7 2 -16 -3 -8 -2 -12 4 -9
6 3 10 -2 10 -12 0 -10 6 -42 13 -70 10 -36 11 -55 3 -63 -7 -7 -6 -10 3 -10
7 0 11 -6 8 -14 -3 -8 -1 -17 6 -20 7 -2 6 -5 -4 -5 -19 -1 -12 -29 -136 509
-22 94 -39 153 -41 138 -3 -24 -11 -30 -54 -43 -76 -22 -106 -55 -50 -55 l27
0 -31 -28 c-24 -21 -30 -32 -23 -48 10 -27 23 -31 87 -28 41 2 52 -1 52 -12 0
-8 -4 -13 -9 -9 -6 3 -15 -4 -21 -15 -6 -11 -20 -20 -32 -20 -12 0 -18 -3 -15
-7 4 -3 -7 -19 -24 -34 l-32 -28 25 -12 c18 -8 24 -17 21 -30 -5 -17 -2 -18
21 -9 14 5 38 16 54 24 26 13 27 13 27 -9 0 -13 -1 -22 -3 -20 -2 2 -23 -16
-46 -38 -38 -37 -41 -44 -28 -59 12 -15 12 -16 -9 -11 -18 5 -21 3 -16 -11 4
-10 3 -15 -3 -11 -6 3 -10 2 -10 -3 0 -11 -106 -83 -126 -86 -7 -1 -41 -25
-74 -54 -34 -29 -65 -52 -69 -52 -4 0 -101 92 -214 205 -114 113 -213 205
-222 205 -21 0 -19 -36 3 -52 10 -7 28 -29 42 -48 13 -19 35 -47 48 -62 22
-24 23 -28 8 -28 -9 0 -14 5 -11 10 3 6 1 10 -4 10 -6 0 -11 -5 -11 -12 0 -6
-6 -4 -13 6 -7 9 -19 18 -27 19 -34 5 -111 51 -137 80 -37 42 -75 68 -143 97
-52 22 -72 27 -112 29 -9 1 -24 8 -32 17 -15 14 -16 14 -17 -3 0 -12 -5 -7
-15 14 -7 17 -24 35 -36 38 -13 4 -31 16 -41 26 -10 11 -22 17 -27 14 -5 -3
-11 -1 -15 5 -4 6 -11 8 -16 4 -5 -3 -6 -10 -3 -16 4 -6 1 -9 -7 -6 -16 5 -43
-18 -35 -31 8 -12 -42 -64 -54 -56 -6 3 -10 2 -10 -4 0 -5 -8 -8 -17 -6 -10 2
-22 4 -26 4 -5 1 -6 5 -2 11 6 10 -30 52 -38 43 -3 -2 -8 5 -12 16 -3 12 -12
21 -18 21 -7 0 -6 4 3 10 13 9 13 10 0 11 -8 1 -18 1 -21 1 -3 -1 -6 6 -6 14
0 8 4 14 9 14 5 0 4 9 -2 20 -9 16 -8 22 5 26 10 4 14 14 10 28 -2 11 -2 15 1
9 4 -9 11 -10 25 -3 10 6 19 7 19 3 1 -4 10 3 20 16 17 19 18 26 8 40 -11 14
-11 14 3 3 13 -10 19 -9 29 3 7 8 18 15 26 15 7 0 16 5 20 12 5 7 3 8 -7 3
-12 -7 -12 -6 0 9 13 15 13 19 0 27 -12 8 -12 9 1 7 8 -1 25 2 38 6 19 6 21
10 11 23 -11 12 -10 14 2 12 20 -4 59 11 59 23 0 5 6 8 13 5 8 -3 20 -1 27 3
8 5 21 5 29 0 13 -7 16 -1 16 36 0 40 -5 49 -28 45 -5 -1 -6 3 -2 9 3 5 14 10
23 10 13 0 13 2 -4 14 -10 8 -16 18 -11 22 4 4 7 2 7 -4 0 -7 5 -12 11 -12 5
0 7 5 3 11 -3 6 -1 15 5 19 7 4 14 16 15 26 2 10 8 18 14 17 6 -2 14 7 17 19
5 15 9 17 15 8 4 -7 13 -9 19 -5 9 5 9 10 0 21 -7 9 -8 14 -3 13 26 -5 53 3
58 17 3 9 2 12 -5 8 -6 -3 -5 3 3 15 7 12 14 17 16 11 2 -5 8 -10 14 -10 6 0
8 7 5 15 -4 8 -1 17 5 21 7 5 8 2 3 -6 -5 -8 -3 -11 4 -9 7 3 11 7 9 10 -2 3
3 13 11 22 7 10 10 17 5 17 -4 0 1 6 11 14 11 8 24 12 29 9 5 -4 6 -1 3 4 -4
6 0 14 9 17 13 5 14 9 4 21 -11 13 -10 14 5 9 13 -5 16 -4 11 4 -4 7 -2 12 3
12 6 0 11 6 11 14 0 8 7 22 16 30 8 9 13 20 10 24 -8 14 41 55 55 46 9 -5 10
-2 6 9 -3 10 -2 17 2 17 5 0 8 12 6 26 -2 19 1 24 14 20 14 -5 14 -4 -1 6 -15
11 -15 13 4 22 12 6 23 18 25 26 4 13 3 13 -6 0 -9 -12 -11 -12 -11 -1 0 8 8
20 18 27 12 9 13 13 3 14 -8 0 -4 8 10 21 13 11 18 17 10 14 -9 -5 -8 1 4 19
10 14 20 26 23 26 3 0 3 -3 -1 -6 -3 -4 0 -13 8 -20 17 -17 31 -18 17 -1 -6 6
-13 29 -17 49 -4 21 -10 36 -14 34 -3 -2 -5 10 -5 27 1 18 -5 45 -13 60 -14
28 -20 46 -30 97 -2 14 -7 32 -10 40 -13 33 -13 60 -1 60 7 0 4 6 -6 12 -18
10 -18 11 4 28 22 16 20 48 -2 34 -6 -4 -6 2 1 15 13 24 26 29 17 6z m4809
-24 c-6 -5 -21 -11 -35 -15 -21 -5 -20 -3 5 9 35 17 42 18 30 6z m-105 -41
c-8 -5 -19 -10 -25 -10 -5 0 -3 5 5 10 8 5 20 10 25 10 6 0 3 -5 -5 -10z m870
-94 c0 -3 -15 -14 -32 -26 l-33 -22 30 26 c31 27 35 29 35 22z m914 -172 c-1
-15 -9 -31 -16 -35 -10 -7 -10 -9 2 -9 13 0 16 -13 15 -65 0 -36 -3 -65 -7
-65 -11 0 -58 -84 -50 -90 13 -8 52 -76 52 -89 0 -7 -5 -9 -12 -5 -8 5 -9 2
-5 -9 4 -10 2 -17 -4 -17 -6 0 -9 -6 -6 -13 4 -10 -2 -13 -19 -9 -24 4 -29 -8
-27 -65 1 -7 -3 -10 -8 -8 -4 3 -12 -2 -17 -12 -8 -14 -15 -6 -38 45 l-27 61
-33 -29 c-49 -43 -139 -101 -229 -150 -44 -24 -107 -60 -140 -80 -70 -43 -105
-62 -105 -57 0 2 35 25 78 52 161 99 248 162 307 220 63 62 154 201 221 338
23 45 45 77 54 77 12 0 13 2 1 9 -7 5 -10 14 -7 20 13 20 23 12 20 -15z
m-3031 -101 c-7 -2 -19 -2 -25 0 -7 3 -2 5 12 5 14 0 19 -2 13 -5z m564 -69
c-3 -3 -12 -4 -19 -1 -8 3 -5 6 6 6 11 1 17 -2 13 -5z m-84 -21 c-7 -2 -19 -2
-25 0 -7 3 -2 5 12 5 14 0 19 -2 13 -5z m1622 -190 c-11 -3 -23 -10 -27 -17
-5 -7 -8 -7 -8 0 0 16 11 24 34 23 20 -1 20 -1 1 -6z m445 -163 c-30 -37 -40
-47 -40 -35 0 6 61 75 67 75 3 0 -10 -18 -27 -40z m-2597 -97 c-7 -2 -19 -2
-25 0 -7 3 -2 5 12 5 14 0 19 -2 13 -5z m2313 -118 c-11 -8 -25 -15 -30 -15
-6 1 0 7 14 15 32 19 40 18 16 0z m-4571 -5 c3 -5 1 -10 -4 -10 -6 0 -11 5
-11 10 0 6 2 10 4 10 3 0 8 -4 11 -10z m92 4 c-3 -3 -12 -4 -19 -1 -8 3 -5 6
6 6 11 1 17 -2 13 -5z m50 -97 c22 -1 -7 -27 -30 -27 -36 0 -88 -23 -83 -37 7
-17 -5 -16 -31 2 -18 13 -22 13 -33 0 -10 -12 -7 -15 14 -21 14 -3 38 -6 53
-6 16 -1 84 -9 153 -19 165 -23 298 -39 346 -40 37 -1 38 -2 9 -8 -31 -7 52
-21 285 -45 102 -11 105 -12 102 -35 -1 -13 4 -29 11 -35 8 -6 19 -30 25 -52
7 -23 19 -47 27 -54 17 -14 20 -30 6 -30 -5 0 -31 13 -58 30 -51 31 -152 51
-423 85 -191 24 -488 64 -556 76 -89 16 -92 19 -60 73 24 41 29 45 47 36 22
-12 174 -41 309 -60 47 -6 105 -16 130 -22 25 -5 68 -12 95 -15 28 -2 91 -11
140 -19 50 -8 115 -13 145 -12 38 1 44 2 20 5 -98 11 -630 89 -740 109 -108
19 -120 26 -97 52 9 10 17 21 17 25 0 3 5 18 10 33 11 27 11 27 83 19 40 -4
78 -7 84 -8z m4253 3 c-8 -5 -19 -10 -25 -10 -5 0 -3 5 5 10 8 5 20 10 25 10
6 0 3 -5 -5 -10z m-1263 -6 c-3 -3 -12 -4 -19 -1 -8 3 -5 6 6 6 11 1 17 -2 13
-5z m-295 -26 c-109 -15 -79 -22 38 -9 138 15 472 14 533 -2 l47 -12 -45 -24
c-24 -13 -43 -27 -40 -30 5 -9 -75 -37 -125 -45 -83 -13 -394 -45 -495 -51
-60 -4 -206 -13 -323 -21 -163 -11 -223 -11 -258 -3 -52 13 -57 38 -9 51 58
15 301 47 410 53 61 4 155 10 210 16 105 9 193 15 421 24 75 3 142 8 147 12 5
3 12 0 16 -6 5 -8 12 -8 24 2 16 11 14 12 -10 16 -83 13 -362 2 -1008 -39 -82
-5 -161 -9 -175 -8 -39 1 69 16 128 17 29 1 52 6 52 12 0 6 17 8 48 4 34 -5
43 -4 32 4 -11 8 0 9 40 6 40 -3 46 -2 20 3 -28 6 -13 9 70 16 58 4 134 11
170 16 101 11 172 10 82 -2z m-1322 -53 c0 -8 -4 -15 -10 -15 -5 0 -10 7 -10
15 0 8 5 15 10 15 6 0 10 -7 10 -15z m1950 -5 c0 -5 -2 -10 -4 -10 -3 0 -8 5
-11 10 -3 6 -1 10 4 10 6 0 11 -4 11 -10z m140 -42 c0 -6 -6 -5 -15 2 -8 7
-15 14 -15 16 0 2 7 1 15 -2 8 -4 15 -11 15 -16z m370 -12 c0 -2 -8 -10 -17
-17 -16 -13 -17 -12 -4 4 13 16 21 21 21 13z m-3342 -23 c-10 -2 -28 -2 -40 0
-13 2 -5 4 17 4 22 1 32 -1 23 -4z m3282 -26 c0 -1 -24 -25 -52 -52 l-53 -50
50 53 c46 48 55 57 55 49z m-126 -110 c16 14 15 11 -3 -10 -14 -15 -27 -24
-31 -20 -22 28 -85 111 -94 123 -5 8 16 -13 48 -48 58 -62 59 -63 80 -45z
m-2814 73 c0 -5 -4 -10 -9 -10 -6 0 -13 5 -16 10 -3 6 1 10 9 10 9 0 16 -4 16
-10z m-2830 -14 c0 -11 -19 -15 -25 -6 -3 5 1 10 9 10 9 0 16 -2 16 -4z m3295
-34 c-3 -3 -11 0 -18 7 -9 10 -8 11 6 5 10 -3 15 -9 12 -12z m-18 -18 c-3 -3
-12 -4 -19 -1 -8 3 -5 6 6 6 11 1 17 -2 13 -5z m-717 -48 c86 -18 57 -19 -50
-2 -47 8 -69 14 -50 15 19 0 64 -6 100 -13z m115 -26 c13 -6 15 -9 5 -9 -8 0
-22 4 -30 9 -18 12 -2 12 25 0z m-359 -15 c-17 -13 -16 -19 4 -17 3 0 6 -8 6
-18 0 -10 -4 -16 -8 -14 -7 5 -13 -45 -9 -69 1 -5 -9 -5 -21 -2 -20 6 -21 5
-8 -6 14 -13 13 -17 -12 -41 -18 -17 -30 -23 -35 -15 -8 14 -10 87 -2 81 4 -2
9 7 11 21 3 13 1 22 -3 19 -5 -3 -9 0 -9 5 0 6 5 11 10 11 6 0 10 6 10 13 0
13 24 29 60 40 25 9 26 7 6 -8z m1624 0 c7 -8 25 -15 41 -15 16 0 29 -5 29
-11 0 -8 -16 -10 -52 -5 -29 3 -66 6 -83 7 -27 0 -28 1 -9 9 12 5 25 13 29 19
9 16 30 14 45 -4z m-1210 -5 c8 -5 11 -10 5 -10 -5 0 -17 5 -25 10 -8 5 -10
10 -5 10 6 0 17 -5 25 -10z m285 -20 c-3 -5 -11 -10 -16 -10 -6 0 -7 5 -4 10
3 6 11 10 16 10 6 0 7 -4 4 -10z m-200 -10 c3 -6 -1 -7 -9 -4 -18 7 -21 14 -7
14 6 0 13 -4 16 -10z m540 -21 c-4 -6 2 -13 14 -16 23 -6 28 -31 8 -39 -24 -9
-2 -134 24 -134 5 0 6 -7 3 -15 -4 -8 -1 -15 5 -15 6 0 3 -9 -6 -20 -10 -11
-20 -15 -23 -9 -4 5 -14 7 -23 3 -10 -3 -23 -1 -31 5 -16 13 -29 1 -45 -42 -8
-21 -8 -27 4 -27 7 0 16 -8 19 -17 7 -21 79 -29 119 -14 18 7 31 4 55 -11 26
-16 30 -23 22 -43 -5 -12 -6 -26 -3 -29 6 -6 -12 -10 -29 -7 -5 0 -7 -2 -7 -6
4 -23 -3 -33 -21 -33 -11 0 -40 -9 -64 -21 -33 -15 -43 -25 -39 -38 3 -13 11
-17 26 -14 18 4 19 3 7 -6 -13 -9 -13 -11 3 -11 9 0 17 5 17 10 0 6 5 9 12 8
7 -2 20 12 29 30 9 18 19 28 21 22 2 -7 14 -3 31 10 15 12 25 27 21 33 -3 7 0
5 8 -4 11 -13 17 -13 38 -2 14 7 21 13 17 13 -5 0 -1 7 8 16 9 9 23 13 33 9
15 -6 15 -9 -7 -26 -13 -11 -21 -25 -18 -34 4 -8 1 -17 -4 -21 -7 -4 -7 -10 1
-18 9 -8 14 -8 17 2 3 6 9 12 14 12 6 0 7 -6 4 -12 -4 -7 2 -3 13 10 22 24 42
31 22 7 -15 -18 0 -20 20 -2 12 10 12 9 0 -7 -8 -10 -25 -22 -38 -27 -13 -5
-20 -13 -17 -19 3 -5 0 -10 -7 -10 -7 0 -22 -11 -32 -25 -10 -14 -25 -25 -32
-25 -8 0 -14 -6 -14 -12 0 -9 -4 -8 -10 2 -7 11 -10 11 -10 2 0 -7 -4 -11 -9
-8 -5 4 -8 -2 -7 -11 3 -17 -10 -33 -26 -33 -5 0 -8 5 -8 11 0 5 6 7 13 3 9
-6 9 -5 0 8 -7 8 -9 19 -5 24 4 4 -1 2 -11 -5 -10 -8 -16 -20 -13 -28 3 -7 -1
-13 -10 -13 -8 0 -13 4 -10 9 3 5 -1 12 -10 15 -11 4 -15 2 -11 -8 3 -8 -2
-16 -14 -19 -23 -6 -67 42 -48 54 7 4 -2 6 -20 4 -17 -1 -35 -6 -39 -10 -4 -5
-2 -6 3 -3 6 3 16 0 23 -8 13 -14 5 -19 -20 -15 -5 0 -8 -4 -8 -11 0 -6 -7 -3
-15 8 -14 18 -14 18 -15 -5 0 -24 0 -24 -21 -5 -19 17 -21 18 -30 1 -6 -9 -15
-17 -22 -17 -8 0 -8 3 2 9 10 7 8 12 -10 25 -13 9 -30 16 -39 16 -8 -1 -1 -7
15 -15 l30 -14 -30 6 c-38 7 -47 12 -40 23 3 4 -5 6 -17 2 -14 -3 -19 -2 -14
6 11 18 -4 14 -22 -6 -10 -10 -13 -13 -9 -6 4 7 3 15 -3 19 -6 3 -8 11 -5 16
4 5 1 9 -4 9 -6 0 -11 -6 -11 -12 0 -8 -3 -9 -8 -3 -4 6 -16 12 -27 13 -17 3
-16 -1 9 -27 22 -22 27 -34 19 -42 -8 -8 -13 -7 -18 2 -5 8 -4 10 3 5 7 -4 12
-3 12 2 0 6 -14 15 -32 21 -24 9 -34 8 -40 -1 -6 -8 -7 -5 -3 10 4 12 3 22 -2
21 -4 -1 -10 -1 -13 1 -3 1 -16 4 -30 6 -18 3 -22 2 -13 -7 14 -14 6 -39 -13
-39 -9 0 -14 11 -14 29 0 17 -5 33 -10 36 -11 7 -9 -21 16 -175 4 -23 3 -23
-7 -6 -38 63 -54 249 -25 303 36 70 369 380 464 431 61 33 77 39 67 21z
m-3042 -82 c-4 -6 2 -8 14 -5 12 3 27 1 34 -4 10 -7 9 -8 -6 -4 -17 5 -18 4
-4 -6 8 -7 18 -21 22 -30 5 -13 1 -16 -19 -12 -16 3 -23 1 -19 -6 3 -5 -2 -10
-12 -11 -10 0 -13 -3 -6 -5 19 -8 3 -33 -19 -29 -12 3 -29 -6 -43 -21 -22 -24
-24 -24 -34 -7 -6 11 -11 13 -11 5 0 -7 -4 -11 -9 -7 -5 3 -12 -4 -16 -15 -3
-11 -10 -20 -15 -20 -5 0 -15 -3 -24 -6 -10 -4 -16 -1 -16 9 0 11 7 15 20 12
11 -2 18 0 15 5 -10 16 -40 3 -43 -19 -3 -19 -6 -20 -20 -9 -12 10 -14 10 -8
1 5 -9 0 -13 -13 -13 -12 0 -21 5 -21 10 0 6 -4 10 -10 10 -5 0 -9 -6 -7 -12
1 -7 -4 -12 -12 -10 -11 2 -12 0 -3 -11 9 -11 6 -13 -21 -9 -17 2 -40 11 -49
20 -17 14 -23 10 -19 -11 1 -5 -3 -5 -9 -2 -6 4 -9 14 -6 22 4 9 2 11 -7 6
-23 -15 -35 -11 -29 10 3 13 -2 25 -14 34 -18 14 -18 15 9 39 16 13 33 22 38
19 5 -4 9 -2 9 3 0 13 113 68 168 82 24 6 66 13 92 15 27 2 57 8 66 13 21 12
68 -14 57 -31z m47 -87 c0 -5 -5 -10 -11 -10 -5 0 -7 5 -4 10 3 6 8 10 11 10
2 0 4 -4 4 -10z m-492 -105 c-3 -3 -9 2 -12 12 -6 14 -5 15 5 6 7 -7 10 -15 7
-18z m1589 -109 c-23 -18 -50 -37 -59 -42 -9 -5 -51 -40 -93 -79 -88 -79 -101
-89 -115 -80 -24 15 -6 49 58 113 71 72 146 115 199 116 18 1 33 5 33 9 0 5 4
5 10 2 5 -3 -9 -21 -33 -39z m109 -58 c3 -4 -5 -12 -18 -19 -42 -22 -117 -90
-132 -120 -15 -30 -7 -38 16 -16 14 13 117 50 132 47 5 -1 13 4 17 12 7 10 9
10 9 1 0 -7 8 -13 17 -13 15 0 14 -2 -3 -16 -10 -8 -13 -12 -5 -8 9 5 12 3 7
-4 -4 -7 -14 -12 -22 -12 -8 0 -14 -6 -14 -13 0 -12 -64 -67 -66 -57 0 3 -8
-1 -16 -8 -9 -7 -23 -9 -32 -6 -9 4 -24 -1 -34 -9 -10 -9 -35 -23 -55 -32 -35
-14 -38 -14 -44 2 -4 9 -15 25 -25 35 -23 23 -23 43 3 84 60 98 225 192 265
152z m137 -178 c3 -11 1 -20 -4 -20 -5 0 -9 -7 -9 -15 0 -8 -7 -15 -14 -15
-12 0 -13 -6 -4 -31 9 -25 7 -32 -8 -44 -11 -8 -25 -12 -32 -10 -7 3 -11 1 -8
-4 8 -12 -42 -43 -56 -35 -7 4 -8 3 -4 -5 4 -6 2 -19 -5 -27 -10 -12 -14 -12
-20 -2 -6 9 -9 6 -9 -9 0 -26 -6 -29 -23 -10 -17 18 -14 42 8 69 11 13 30 43
43 68 14 28 40 57 69 78 55 37 69 40 76 12z m1597 -58 c0 -5 -7 -17 -15 -28
-14 -18 -14 -17 -4 9 12 27 19 34 19 19z m-1590 -32 c0 -5 -5 -10 -11 -10 -5
0 -7 5 -4 10 3 6 8 10 11 10 2 0 4 -4 4 -10z m53 -120 c-3 -11 -7 -20 -9 -20
-2 0 -4 9 -4 20 0 11 4 20 9 20 5 0 7 -9 4 -20z"/>
<path d="M6560 8004 c69 -32 100 -45 100 -39 0 5 -101 52 -130 59 -14 3 0 -5
30 -20z"/>
<path d="M6770 7911 c58 -28 116 -58 130 -66 14 -9 42 -23 63 -31 20 -9 37
-20 37 -24 0 -8 71 -55 142 -95 20 -11 74 -47 120 -80 45 -33 96 -68 113 -79
16 -10 33 -24 38 -31 4 -8 23 -19 42 -25 19 -6 33 -16 30 -21 -5 -8 9 -13 18
-6 8 5 37 -26 32 -33 -3 -5 -2 -11 3 -14 5 -3 9 2 9 10 0 9 -28 36 -61 62 -34
26 -70 54 -80 64 -11 10 -23 18 -27 18 -15 0 -78 48 -72 54 4 3 0 6 -7 6 -8 0
-25 10 -38 23 -14 12 -22 15 -18 7 4 -8 1 -7 -8 4 -8 10 -20 15 -26 11 -6 -3
-9 -1 -8 6 2 7 -40 39 -92 71 -99 61 -376 202 -420 213 -14 3 22 -17 80 -44z"/>
<path d="M4975 7743 c-306 -26 -722 -154 -1025 -315 -127 -67 -322 -196 -445
-295 -370 -295 -673 -783 -801 -1286 -14 -55 -23 -101 -21 -103 1 -2 17 46 35
106 93 320 240 620 426 870 82 111 296 329 411 420 106 84 296 208 405 264
336 174 793 308 1135 334 l120 9 -100 0 c-55 0 -118 -2 -140 -4z"/>
<path d="M5115 7723 c-513 -29 -1128 -268 -1545 -599 -103 -82 -293 -272 -375
-374 -33 -41 -63 -77 -66 -80 -3 -3 -44 -64 -91 -135 -75 -115 -128 -210 -128
-231 0 -3 -18 -45 -39 -93 -53 -118 -147 -397 -171 -506 -55 -251 -72 -386
-77 -622 -3 -133 -2 -233 3 -233 5 0 7 66 6 147 -4 140 8 302 28 403 5 25 19
102 31 173 12 70 24 125 26 123 2 -2 -10 -89 -28 -192 -29 -168 -33 -216 -37
-434 -2 -135 -8 -253 -14 -263 -7 -14 17 -5 84 30 51 27 168 82 261 122 92 41
167 76 167 79 0 2 -6 2 -14 -1 -12 -5 -13 -1 -4 24 6 17 16 33 24 36 7 2 10
11 8 18 -3 7 0 16 6 20 9 6 9 9 1 15 -9 5 -7 11 5 21 15 12 17 12 9 0 -5 -10
-4 -12 3 -7 7 4 12 12 12 18 0 13 -60 5 -199 -28 -57 -13 -106 -23 -107 -21
-4 4 186 57 273 77 67 15 76 26 85 98 1 6 6 12 11 12 6 0 8 3 4 6 -7 7 12 28
33 37 13 5 13 6 1 6 -12 1 -11 4 2 14 15 10 10 12 -33 12 -27 0 -50 -3 -50 -7
0 -4 -9 -6 -19 -5 -11 0 -17 5 -15 9 3 5 10 6 15 3 5 -4 12 1 15 10 5 12 9 13
14 5 10 -16 80 -4 80 12 0 6 3 8 7 5 6 -7 34 45 38 68 0 6 7 8 15 7 8 -2 12 0
8 4 -4 4 -2 14 5 22 8 11 8 14 0 9 -7 -4 -10 -1 -9 10 2 9 13 18 27 20 13 2
28 9 34 15 7 8 6 9 -2 4 -7 -4 -13 -2 -13 3 0 6 5 11 12 11 6 0 9 2 6 5 -3 3
-24 -1 -47 -8 -22 -8 -38 -11 -36 -7 3 5 2 10 -2 13 -5 2 -2 2 4 1 7 -2 23 1
35 5 30 12 13 18 -77 26 -38 3 -117 12 -175 20 l-105 14 95 -5 c52 -3 109 -7
126 -10 31 -6 32 -5 30 29 -2 27 1 34 11 30 12 -5 12 -7 1 -15 -10 -8 -10 -9
2 -5 8 2 15 8 15 13 0 5 4 16 10 24 8 13 7 13 -8 1 -15 -12 -17 -12 -11 3 3 9
11 16 16 16 6 0 8 9 5 20 -3 11 -2 18 1 16 4 -2 13 2 20 10 7 8 9 14 5 14 -4
0 -1 5 7 10 11 7 11 10 2 10 -10 0 -10 3 0 14 7 7 19 11 26 9 8 -4 10 0 6 11
-4 9 -1 16 6 16 7 0 10 6 7 14 -3 8 2 17 11 21 14 5 14 7 2 15 -12 8 -10 10 8
10 13 0 20 4 17 10 -3 6 1 7 10 4 13 -5 15 -1 11 20 -3 15 -1 24 5 21 5 -4 9
-1 9 4 0 6 3 10 8 10 19 -3 25 2 12 11 -11 7 -11 10 -2 10 7 0 10 5 7 10 -4 6
-3 9 2 8 4 -1 19 2 32 6 18 6 21 10 10 17 -10 6 -8 9 9 9 13 0 20 4 17 10 -3
6 2 10 12 10 14 0 15 2 5 9 -11 6 -7 13 16 29 16 12 41 26 56 32 15 5 25 14
21 19 -3 5 4 13 16 16 17 6 19 9 8 16 -11 7 -11 9 2 9 9 0 28 12 42 26 18 18
34 25 47 21 11 -3 18 -1 14 4 -3 5 0 9 6 9 6 0 9 4 6 9 -3 5 2 8 11 7 9 0 18
5 20 12 3 6 -4 12 -14 13 -14 0 -15 2 -3 6 8 3 18 11 22 17 5 8 8 7 8 -1 0 -7
5 -13 11 -13 5 0 7 5 3 11 -4 8 1 9 17 5 13 -3 18 -3 12 0 -22 10 -14 24 13
24 14 0 23 4 19 10 -3 6 3 10 14 10 12 0 21 5 21 10 0 6 10 10 23 11 16 1 13
4 -13 12 -35 11 -35 11 -7 15 33 4 34 14 5 36 -23 16 -23 16 4 6 15 -5 34 -7
42 -4 8 3 17 1 21 -5 3 -6 12 -11 18 -11 7 0 6 4 -3 11 -12 8 -12 12 -2 16 10
4 10 8 1 19 -14 17 2 19 20 2 11 -11 12 -9 3 7 -9 19 -7 21 21 23 39 3 48 11
19 19 -21 5 -21 6 -5 19 15 11 16 16 6 33 -11 17 -10 19 2 15 8 -4 15 -10 15
-15 0 -5 9 -9 19 -9 27 0 35 30 14 46 -10 7 -14 14 -10 14 4 0 21 -10 37 -22
16 -12 41 -22 55 -24 22 -2 23 -1 10 12 -21 21 -19 27 6 14 11 -6 24 -21 29
-33 5 -12 9 -16 9 -10 1 10 8 10 29 2 48 -19 59 -18 57 2 -1 11 -7 25 -13 31
-7 7 -12 19 -11 28 0 10 2 11 6 2 2 -6 9 -9 15 -6 5 3 2 15 -9 27 -10 11 -12
17 -5 13 6 -4 12 -2 12 3 0 6 -10 11 -22 11 -35 0 -14 10 24 12 29 1 34 4 30
20 -3 12 1 18 12 18 10 0 13 6 10 15 -5 11 -2 13 10 9 12 -5 15 -2 10 10 -4
12 -2 15 9 10 9 -3 21 3 30 16 11 16 17 18 23 9 5 -9 9 -8 14 6 7 21 37 29 47
13 4 -7 1 -8 -8 -3 -12 8 -12 6 0 -8 14 -18 26 -23 16 -7 -3 5 6 12 20 16 13
3 22 10 19 15 -9 15 3 10 17 -8 12 -14 12 -16 0 -8 -9 5 -12 4 -7 -3 4 -6 13
-9 21 -6 8 4 12 11 8 18 -4 6 1 4 11 -4 17 -14 17 -15 -3 -31 -23 -19 -29 -76
-11 -109 9 -16 8 -18 -5 -14 -13 5 -14 2 -5 -20 5 -14 6 -26 2 -26 -13 0 -8
-46 7 -64 12 -14 12 -16 -3 -10 -21 8 -20 3 5 -45 22 -42 46 -58 63 -41 10 10
14 24 22 80 6 44 34 149 46 173 14 27 21 67 20 102 -1 26 0 28 10 11 16 -28
28 0 16 36 -11 31 -4 63 12 53 6 -4 8 -10 6 -14 -3 -4 -1 -13 5 -21 6 -11 9
-8 9 13 0 31 23 37 39 10 10 -17 10 -17 11 1 0 12 5 16 14 13 8 -3 16 -1 19 6
2 6 6 3 10 -7 4 -10 3 -15 -3 -11 -6 3 -10 1 -10 -5 0 -7 7 -9 16 -6 26 10 54
-31 54 -78 0 -29 3 -37 9 -26 6 8 7 18 5 22 -3 4 -1 8 5 8 5 0 12 -6 14 -12 3
-7 6 -4 6 7 1 17 3 17 11 5 8 -13 10 -13 10 2 0 9 6 23 13 30 31 32 55 86 49
113 -4 21 -2 26 8 20 10 -6 11 -1 6 20 -6 25 -5 27 8 16 14 -12 16 -10 16 8 0
12 5 19 10 16 6 -3 10 0 10 7 0 7 7 2 16 -10 18 -27 37 -19 30 11 -4 13 0 10
8 -7 9 -20 15 -25 19 -15 4 9 6 7 6 -6 1 -17 3 -17 11 -5 7 11 10 1 9 -35 -1
-71 -12 -136 -24 -135 -5 0 -10 -3 -10 -7 -2 -33 -18 -83 -24 -79 -5 3 -12 29
-15 58 -7 49 -9 52 -22 34 -8 -11 -15 -43 -16 -70 l-1 -51 -6 45 c-6 43 -7 44
-14 16 -9 -31 22 -263 31 -236 3 8 11 21 19 28 11 11 13 11 13 -2 0 -8 -4 -18
-10 -21 -5 -3 -10 -16 -9 -28 0 -21 1 -21 9 -2 7 17 9 16 10 -10 1 -17 4 -24
7 -15 4 8 17 29 30 46 12 17 20 33 17 36 -3 3 3 5 13 5 13 -2 23 13 38 58 11
33 26 66 33 74 7 7 11 20 8 28 -3 8 -1 11 4 8 6 -3 10 5 10 19 0 14 4 28 10
31 6 4 8 -10 5 -37 -3 -24 2 -65 9 -93 l14 -50 -5 76 c-7 96 8 134 26 64 14
-57 23 -57 11 0 -4 22 -11 56 -14 75 l-6 35 10 -32 c6 -18 14 -33 19 -33 5 0
14 27 21 60 7 32 21 67 31 76 11 9 19 23 19 29 0 20 30 27 30 7 1 -13 3 -12
13 6 7 12 16 19 20 16 4 -4 7 -2 7 6 0 9 3 10 14 1 11 -9 15 -9 20 1 3 7 3 -2
0 -20 -4 -32 -4 -32 15 -13 10 10 24 27 30 37 19 31 2 -22 -25 -80 -13 -28
-24 -57 -24 -65 0 -14 -1 -14 -10 -1 -8 12 -10 12 -10 -5 -1 -30 -38 -107 -49
-101 -5 4 -12 0 -14 -6 -3 -8 -6 -4 -7 7 -1 11 -6 2 -10 -20 -8 -43 -3 -65 11
-44 7 11 9 9 10 -6 1 -11 1 -24 0 -28 -1 -5 3 -6 9 -2 5 3 10 2 10 -4 0 -5 -4
-13 -10 -16 -5 -3 -10 -16 -10 -28 0 -18 2 -19 10 -7 8 12 10 10 10 -9 0 -13
-3 -21 -7 -18 -9 10 -32 -25 -33 -50 0 -13 -4 -23 -10 -23 -5 0 -10 -8 -10
-17 0 -14 -2 -15 -9 -4 -7 11 -11 10 -20 -7 -6 -11 -11 -27 -10 -34 0 -7 4 -4
9 7 5 13 9 14 9 5 0 -18 -17 -59 -19 -45 0 6 -10 -8 -21 -30 l-20 -40 7 34 c4
24 3 32 -6 26 -6 -4 -10 -25 -9 -49 1 -22 1 -52 0 -66 l-2 -25 -15 25 c-11 19
-14 20 -10 5 15 -55 22 -114 16 -126 -4 -8 -6 -34 -5 -59 4 -72 5 -78 15 -55
9 21 9 6 -5 -121 -6 -57 -8 -62 -31 -60 -26 1 -38 22 -28 52 5 18 5 18 -6 1
-7 -10 -9 -31 -5 -49 6 -26 5 -30 -9 -25 -9 4 -16 2 -16 -3 0 -6 -7 -10 -15
-10 -18 0 -18 -1 -5 -35 6 -17 14 -24 22 -19 10 6 10 5 1 -7 -7 -8 -10 -24 -7
-36 4 -16 -3 -25 -36 -42 -22 -11 -47 -21 -54 -21 -20 0 -49 -37 -40 -52 4 -7
3 -10 -1 -5 -11 9 -75 -52 -75 -71 0 -22 -33 -72 -47 -72 -7 0 -13 -4 -13 -10
0 -18 -40 6 -65 40 -31 42 -31 52 -2 48 18 -2 22 1 19 22 -3 31 -39 101 -59
117 -12 9 -27 5 -76 -22 -34 -19 -63 -39 -65 -44 -2 -6 23 -23 55 -39 57 -29
83 -53 134 -122 34 -45 61 -150 40 -150 -5 0 -8 -15 -6 -34 1 -18 -1 -39 -6
-47 -4 -8 -3 -19 3 -26 6 -8 7 -24 2 -40 -4 -16 -7 -31 -6 -35 1 -5 -5 -8 -13
-8 -8 0 -15 -9 -15 -20 0 -11 -7 -20 -15 -20 -8 0 -15 -5 -15 -11 0 -6 -6 -9
-14 -6 -8 3 -20 -1 -27 -9 -6 -8 -17 -13 -23 -11 -6 2 -19 -7 -29 -20 -10 -13
-22 -21 -27 -18 -5 3 -11 -3 -14 -13 -8 -24 -93 -114 -129 -136 -15 -9 -33
-14 -39 -10 -6 4 -8 3 -5 -3 3 -5 -30 -36 -74 -68 -91 -67 -90 -61 -39 -168
29 -60 44 -89 124 -230 21 -37 39 -73 40 -80 2 -6 6 -28 10 -48 5 -25 3 -45
-5 -60 -7 -13 -13 -28 -14 -32 0 -4 -4 -11 -10 -15 -15 -11 -33 -68 -26 -81 5
-7 16 -2 31 14 39 41 159 102 237 119 106 24 168 21 199 -7 25 -23 89 -58 178
-98 27 -11 56 -27 63 -35 8 -8 23 -14 34 -14 11 0 22 -7 25 -15 4 -8 12 -15
19 -15 6 0 26 -7 43 -16 46 -23 97 -28 134 -14 76 28 108 46 108 60 1 12 3 12
14 -2 16 -22 26 -23 26 -3 0 24 19 17 32 -10 10 -22 9 -28 -10 -41 -12 -8 -22
-19 -22 -24 0 -10 -59 -70 -69 -70 -3 0 -14 -14 -23 -31 -10 -17 -22 -28 -26
-25 -5 3 -14 -10 -20 -28 -7 -19 -21 -36 -32 -39 -11 -3 -20 -11 -20 -19 -1
-15 -64 -58 -87 -58 -8 0 -17 -9 -20 -20 -3 -11 -13 -20 -23 -20 -9 0 -27 -9
-40 -20 -13 -11 -29 -20 -36 -20 -7 0 -29 -9 -49 -20 -19 -11 -35 -17 -35 -14
0 3 -19 -5 -42 -19 -96 -56 -169 -79 -255 -81 -47 0 -79 3 -75 8 3 5 -2 7 -11
3 -14 -5 -70 16 -87 33 -3 3 -14 6 -25 8 -11 2 -25 10 -32 18 -6 9 -13 14 -15
12 -4 -3 -101 63 -110 76 -4 6 -8 8 -8 4 0 -4 -10 3 -23 15 -38 36 -71 61 -99
76 -15 8 -36 22 -46 31 -10 9 -42 20 -72 23 -30 4 -59 13 -65 20 -9 13 -26 19
-95 33 -50 11 -57 15 -35 24 18 8 18 9 -5 9 -14 1 -38 8 -54 16 -15 8 -37 15
-47 15 -10 0 -21 5 -24 10 -4 6 -11 8 -16 5 -5 -4 -16 1 -25 9 -8 9 -25 16
-37 17 -21 0 -21 1 -2 9 14 6 16 9 5 10 -8 2 -18 2 -22 1 -5 0 -8 6 -8 15 0
14 -3 14 -15 4 -12 -10 -15 -10 -15 0 0 6 -16 -8 -36 -32 -54 -65 -57 -67 -30
-16 20 37 22 47 10 52 -8 3 -11 12 -7 22 5 14 2 16 -15 12 -12 -4 -20 -2 -16
3 5 9 -16 14 -50 10 -10 0 -25 4 -33 10 -7 7 -16 9 -20 6 -3 -4 -12 -2 -19 4
-15 12 -21 3 -41 -55 -11 -34 -13 -35 -9 -9 7 42 -4 133 -16 133 -5 0 -6 -5
-2 -12 4 -6 3 -8 -4 -4 -6 3 -13 2 -17 -4 -4 -6 -10 -8 -15 -5 -5 3 -14 -11
-20 -31 -7 -19 -14 -33 -17 -30 -3 3 0 20 6 37 8 22 8 36 1 43 -5 5 -10 14
-10 20 0 5 7 1 15 -10 13 -18 14 -18 9 6 -4 17 -3 21 4 12 7 -11 10 -11 15 3
4 9 3 13 -3 10 -6 -3 -10 -1 -10 6 0 6 -16 -1 -36 -16 -34 -26 -35 -26 -24 -5
10 18 9 24 -1 30 -7 5 -18 6 -25 3 -6 -2 -15 1 -19 7 -5 8 -12 6 -25 -5 -11
-10 -20 -12 -24 -6 -4 5 -2 12 4 16 19 12 10 26 -12 20 -17 -5 -19 -4 -9 4 12
8 12 12 2 25 -7 9 -17 13 -22 10 -5 -3 -9 2 -9 10 0 10 -9 16 -25 16 -18 0
-23 4 -19 15 7 17 -11 21 -21 5 -4 -7 -12 -7 -23 -1 -21 12 -60 -18 -202 -154
l-104 -100 69 78 c38 43 104 109 147 147 42 37 74 71 71 74 -4 3 -1 6 6 6 9 0
9 4 -1 14 -7 8 -15 13 -18 11 -10 -6 -35 20 -36 37 -1 10 2 16 6 13 9 -6 7 56
-3 72 -4 6 5 21 20 34 16 12 20 19 11 16 -21 -7 -23 4 -6 21 9 9 9 15 0 24 -9
9 -12 9 -12 -2 0 -7 -3 -11 -6 -8 -9 10 -105 -37 -195 -95 -103 -66 -266 -218
-254 -237 6 -9 4 -11 -5 -5 -10 6 -12 4 -7 -9 4 -10 7 -20 7 -22 0 -3 4 -2 10
1 6 4 7 -1 3 -11 -5 -13 -3 -15 8 -9 11 7 12 6 2 -6 -10 -12 -8 -17 8 -27 11
-7 17 -17 14 -22 -8 -12 35 -71 47 -64 5 3 7 1 6 -5 -2 -5 6 -17 17 -26 11 -9
13 -13 5 -9 -13 7 -13 5 -1 -9 7 -9 17 -14 22 -11 5 3 6 -3 2 -13 -5 -14 2
-11 33 11 21 16 33 23 27 16 -24 -26 -14 -42 74 -119 21 -18 47 -41 58 -51 38
-33 206 -149 248 -170 23 -12 60 -33 82 -47 38 -23 32 -24 -25 -5 -8 2 -5 -3
8 -13 13 -9 29 -18 35 -19 7 -2 39 -15 71 -30 33 -15 68 -25 77 -23 10 3 20
-2 23 -10 3 -7 11 -13 18 -11 7 1 28 -6 46 -16 19 -9 36 -15 40 -12 3 3 15 0
28 -8 12 -8 35 -17 50 -20 16 -2 29 -5 29 -6 0 -3 129 -33 285 -66 261 -55
803 -114 1043 -114 79 0 97 -3 97 -15 0 -8 -3 -15 -7 -15 -5 0 -84 -5 -178
-11 -93 -6 -174 -10 -180 -9 -5 0 -113 5 -240 9 -387 15 -658 58 -928 150
-192 65 -187 64 -147 44 19 -10 46 -26 60 -35 86 -57 457 -132 830 -168 113
-10 219 -22 237 -25 41 -7 665 -7 803 0 171 9 353 37 400 61 57 28 99 44 120
44 12 0 54 11 93 24 78 26 137 41 151 38 4 -2 13 1 20 7 6 5 37 14 69 21 67
14 326 94 446 139 211 78 477 231 659 378 14 11 13 15 -4 35 l-19 23 22 -19
c22 -18 53 -16 53 3 0 13 -97 154 -174 256 -34 44 -84 114 -110 155 -68 104
-280 312 -446 435 -163 122 -206 149 -221 139 -7 -4 -9 -3 -6 3 4 6 -9 20 -29
32 -19 12 -32 15 -28 9 5 -7 -10 2 -32 20 -59 49 -58 49 -73 44 -8 -3 -11 0
-7 6 3 5 -2 9 -12 8 -9 0 -16 4 -15 10 1 6 -4 11 -12 11 -22 0 -6 -24 26 -40
17 -8 30 -18 30 -23 -1 -5 5 -9 12 -9 6 -1 11 -6 9 -13 -1 -7 3 -12 9 -12 6 0
9 -9 6 -20 -6 -22 25 -46 43 -35 6 4 9 1 8 -5 -2 -6 53 -44 120 -83 164 -96
317 -216 486 -381 145 -143 177 -190 41 -61 -160 151 -572 467 -549 422 3 -7
0 -5 -8 3 -23 27 -87 62 -99 54 -7 -4 -9 -3 -5 4 3 6 2 13 -4 17 -5 3 -10 1
-10 -5 0 -6 -5 -8 -10 -5 -6 4 -8 11 -5 16 4 5 1 9 -4 9 -24 0 -8 -27 32 -54
23 -17 101 -70 172 -120 72 -49 155 -109 185 -134 96 -76 252 -225 339 -323
l84 -94 -104 106 c-121 124 -182 177 -377 323 -126 96 -144 107 -160 95 -15
-13 -16 -12 -4 3 15 18 7 25 -25 22 -12 0 -20 3 -17 8 3 4 10 6 15 3 5 -4 9
-4 9 -2 0 2 -19 17 -41 32 -23 15 -38 22 -35 17 3 -6 1 -12 -6 -14 -6 -2 -12
-12 -14 -21 -1 -9 2 -15 7 -11 5 3 7 10 4 15 -4 5 -2 9 4 9 5 0 13 -5 16 -11
4 -6 14 -8 22 -4 12 4 13 2 7 -7 -16 -21 -36 -87 -30 -97 3 -5 -2 -12 -11 -15
-9 -4 -20 -1 -24 6 -9 14 -11 13 -27 -24 -12 -28 -35 -37 -47 -18 -4 6 -11 8
-16 5 -5 -4 -9 -1 -9 5 0 6 -5 8 -10 5 -6 -3 -10 -14 -10 -23 0 -15 2 -15 10
-2 9 13 10 13 10 0 0 -13 1 -13 10 0 6 9 10 10 10 3 0 -11 -18 -28 -32 -28
-12 0 -21 -15 -10 -16 7 -1 17 -2 22 -3 6 0 10 -4 10 -8 0 -5 0 -11 0 -14 0
-4 -8 0 -17 7 -14 12 33 -84 58 -116 4 -6 29 -53 55 -105 43 -88 160 -427 150
-437 -2 -3 -12 22 -21 54 -32 111 -114 320 -161 408 -45 83 -176 241 -193 231
-3 -2 -12 2 -19 10 -7 8 -10 14 -6 14 4 0 -14 17 -41 38 -27 20 -53 36 -58 34
-5 -2 -6 5 -3 15 4 9 4 15 1 11 -9 -9 -58 39 -51 51 4 5 1 13 -5 17 -8 4 -9 3
-5 -4 4 -7 1 -12 -10 -12 -12 0 -14 -3 -6 -13 6 -7 9 -25 8 -39 -2 -15 0 -25
5 -23 4 3 14 -4 22 -16 9 -13 17 -16 22 -10 8 13 45 15 45 2 0 -5 10 -12 23
-16 13 -4 17 -8 10 -12 -7 -2 -13 -9 -13 -15 0 -6 6 -6 15 2 8 7 16 10 16 6 1
-3 2 -10 3 -15 0 -5 11 -18 23 -29 18 -15 20 -21 10 -33 -7 -7 -2 -5 10 4 13
12 23 14 27 8 4 -6 -2 -16 -14 -23 -11 -7 -20 -17 -20 -22 0 -5 9 -1 19 8 12
11 21 14 26 7 3 -6 1 -11 -6 -11 -7 0 -9 -3 -6 -6 4 -4 13 -1 22 6 8 7 15 11
16 9 5 -23 3 -56 -3 -53 -5 3 -24 0 -43 -7 -31 -12 -39 -20 -37 -40 2 -11 -42
3 -50 15 -5 6 -8 1 -8 -12 0 -12 -6 -25 -14 -28 -11 -4 -13 -16 -9 -41 4 -25
3 -34 -5 -29 -6 4 -8 14 -5 23 5 12 3 14 -7 8 -10 -6 -12 -4 -7 9 4 9 3 15 -3
11 -5 -3 -8 3 -7 13 2 25 -44 143 -53 137 -5 -3 -6 3 -4 12 6 24 -88 198 -106
198 -8 0 -14 -7 -12 -15 2 -8 -14 2 -36 23 -42 41 -50 29 -19 -30 23 -44 21
-55 -3 -15 -18 29 -30 37 -53 33 -4 -1 -13 10 -19 24 -6 14 -15 25 -20 25 -5
0 -6 5 -2 12 4 7 3 8 -4 4 -9 -5 -9 -13 -1 -28 8 -15 8 -19 0 -14 -17 11 -14
3 29 -76 22 -40 40 -77 40 -83 0 -5 -22 30 -49 78 -26 49 -56 96 -65 105 -17
16 -17 15 -10 -23 4 -22 13 -57 20 -79 8 -21 14 -41 14 -45 -1 -8 -72 141 -76
157 -7 37 -14 18 -15 -44 -1 -38 -3 -58 -6 -44 -9 60 -27 110 -44 126 -23 21
-24 14 -4 -32 17 -41 2 -36 -21 7 -8 17 -20 29 -26 27 -16 -6 -64 41 -60 58 5
23 -16 16 -24 -8 -6 -19 -8 -20 -18 -7 -6 9 -42 33 -81 54 -38 21 -71 41 -73
46 -2 4 -9 6 -17 3 -8 -3 -20 4 -27 16 -7 12 -34 31 -60 42 -34 14 -48 26 -48
40 0 10 -4 17 -9 14 -5 -3 -16 9 -25 28 -19 40 -30 142 -17 151 6 3 7 13 4 21
-7 18 14 62 42 87 11 10 52 40 90 65 39 25 77 53 85 61 8 7 29 20 48 28 18 7
30 18 27 23 -3 5 9 16 27 23 47 21 114 89 103 107 -4 6 1 7 11 3 12 -4 15 -3
10 5 -8 14 3 15 117 14 42 -1 75 3 72 7 -3 5 7 12 20 15 14 4 23 11 20 15 -3
5 16 2 43 -6 27 -9 121 -19 227 -24 153 -8 187 -7 234 7 89 26 149 61 226 134
93 88 125 97 268 75 55 -8 117 -35 117 -51 0 -8 6 -14 13 -14 22 0 43 -32 42
-62 0 -16 3 -28 7 -28 18 0 6 -21 -17 -30 -35 -13 -31 -36 8 -50 l32 -13 -30
-7 c-16 -4 -43 -5 -60 -3 -23 4 -27 2 -15 -6 13 -9 13 -12 1 -20 -12 -8 -12
-10 0 -14 8 -2 5 -2 -6 0 -11 3 -38 8 -61 13 -22 5 -66 5 -98 1 -32 -4 -81 -4
-109 1 -49 9 -157 3 -157 -9 0 -3 8 -12 18 -20 9 -8 11 -11 4 -8 -16 8 -233
14 -246 7 -5 -3 27 -22 70 -44 88 -43 109 -55 136 -80 23 -22 25 -23 -60 7
-89 31 -97 31 -98 0 -1 -14 1 -25 5 -25 4 0 16 -7 27 -16 18 -14 17 -15 -13
-11 -26 3 -30 1 -22 -10 7 -7 18 -13 26 -13 8 0 13 -6 10 -13 -8 -21 15 -31
249 -106 471 -151 716 -242 699 -259 -2 -3 -30 7 -60 22 -31 15 -62 26 -68 25
-7 -1 -19 1 -27 4 -18 8 -146 52 -445 151 -121 41 -242 83 -268 95 -59 25 -93
29 -62 6 78 -58 125 -98 121 -103 -4 -3 -19 5 -34 19 -28 25 -67 49 -79 49 -4
0 9 -11 28 -25 19 -14 45 -38 59 -53 14 -15 45 -43 70 -62 25 -19 48 -39 52
-45 4 -5 8 -6 8 -2 0 4 26 -10 58 -31 56 -38 133 -84 216 -130 49 -27 104 -78
71 -66 -11 4 -65 36 -120 71 -121 76 -250 144 -259 136 -3 -3 -12 0 -21 7 -9
7 -18 10 -21 8 -9 -10 65 -50 77 -42 8 4 9 3 5 -4 -4 -7 12 -21 41 -36 78 -39
264 -166 259 -175 -3 -5 16 -25 42 -46 l47 -37 -45 41 c-25 23 -41 41 -36 41
12 0 60 -37 111 -85 l40 -38 -37 22 c-21 13 -38 20 -38 16 0 -3 -14 3 -31 15
-16 12 -32 20 -35 17 -7 -7 101 -87 171 -127 84 -47 269 -169 340 -224 83 -65
215 -186 215 -198 0 -5 -26 15 -57 45 -74 70 -160 141 -243 199 -69 49 -247
158 -257 158 -9 0 -123 85 -168 125 -23 21 -31 33 -20 29 24 -8 16 0 -42 45
-24 18 -48 29 -54 25 -8 -4 -9 -3 -5 4 13 21 -233 165 -263 154 -8 -2 -11 0
-8 5 3 5 0 10 -8 10 -8 0 -15 -6 -15 -14 0 -7 5 -13 11 -13 6 0 17 -7 26 -15
8 -8 19 -12 25 -9 7 5 8 2 3 -6 -6 -10 -4 -12 9 -7 9 4 15 3 12 -2 -3 -4 7
-14 22 -20 92 -42 311 -215 477 -376 38 -37 120 -142 161 -205 26 -41 80 -118
120 -171 40 -53 94 -130 122 -171 l49 -76 66 63 c37 35 67 68 67 73 0 5 7 12
15 16 8 3 15 12 15 19 0 8 16 31 35 51 19 21 35 43 35 51 0 7 7 16 16 19 10 4
13 2 9 -7 -4 -6 2 -1 14 13 25 31 47 86 131 321 15 43 34 131 44 205 10 71 19
131 22 133 2 2 2 -38 -1 -90 -3 -68 -2 -83 4 -54 13 59 31 261 31 349 0 69
-42 481 -55 546 -4 19 -3 21 5 10 5 -8 15 -42 22 -75 l12 -60 9 45 c24 136 23
223 -4 324 -18 68 -21 90 -11 93 18 7 15 21 -7 28 -18 5 -61 103 -61 137 0 9
-7 21 -15 28 -21 17 -77 119 -70 129 3 5 -2 11 -10 15 -8 3 -15 12 -15 19 0 8
-7 20 -15 27 -9 7 -13 15 -11 18 3 2 -6 19 -19 37 -14 17 -25 37 -25 43 0 6
-6 15 -14 19 -7 4 -22 24 -33 43 -29 54 -54 89 -89 125 -17 18 -42 53 -54 79
-13 25 -27 43 -31 40 -8 -4 -67 77 -94 127 -6 12 -16 17 -28 13 -15 -5 -18 -2
-13 14 5 14 -6 35 -39 74 -25 30 -45 61 -45 69 0 8 -13 20 -30 27 -16 8 -30
20 -30 28 0 8 -8 18 -17 21 -10 4 -25 15 -34 25 -9 10 -21 18 -27 18 -5 0 -12
7 -16 15 -3 8 -13 15 -22 15 -10 0 -32 11 -50 25 -18 14 -39 23 -46 20 -8 -3
-24 6 -36 20 -12 14 -28 25 -36 25 -7 0 -19 7 -27 16 -8 10 -21 13 -37 9 -13
-3 -21 -2 -18 3 3 5 -8 7 -23 4 -16 -2 -49 6 -74 17 -25 12 -49 21 -53 21 -4
0 -15 7 -25 16 -10 9 -23 14 -30 12 -6 -2 14 -23 44 -46 93 -70 242 -203 239
-214 -1 -5 2 -7 7 -3 13 8 52 -26 44 -38 -3 -6 -2 -7 4 -4 6 4 29 -11 52 -33
23 -22 48 -40 56 -40 9 0 12 -6 8 -17 -4 -11 -3 -14 5 -9 6 4 19 -3 29 -14 10
-11 40 -43 66 -70 26 -28 45 -50 42 -50 -3 0 29 -35 71 -77 81 -83 225 -268
265 -343 13 -25 29 -48 34 -52 6 -4 6 -8 2 -8 -5 0 1 -13 13 -29 62 -88 232
-480 273 -631 17 -61 29 -222 16 -197 -5 9 -16 53 -25 99 -47 248 -164 531
-316 760 -144 218 -221 306 -453 513 -43 39 -84 76 -92 83 -7 7 -13 11 -13 9
0 -3 -13 7 -30 23 -16 15 -43 33 -59 40 -17 7 -28 17 -24 23 3 5 2 8 -3 4 -5
-3 -27 8 -49 23 -103 74 -191 129 -326 202 -156 84 -346 171 -359 163 -4 -2
-49 11 -101 29 -107 38 -308 90 -315 83 -3 -3 10 -8 28 -12 67 -13 200 -56
307 -99 134 -55 293 -128 287 -133 -2 -2 -37 11 -78 30 -155 72 -464 174 -628
207 -171 35 -501 62 -655 53z m368 -140 c-7 -2 -21 -2 -30 0 -10 3 -4 5 12 5
17 0 24 -2 18 -5z m94 -9 c-3 -3 -12 -4 -19 -1 -8 3 -5 6 6 6 11 1 17 -2 13
-5z m138 -19 c44 -8 105 -22 135 -30 47 -12 49 -14 15 -10 -57 6 -274 53 -250
54 11 0 56 -6 100 -14z m638 -28 c84 -37 114 -56 51 -33 -80 29 -153 66 -131
66 2 0 38 -15 80 -33z m177 -112 c17 -9 30 -18 30 -20 0 -6 -52 16 -64 27 -16
13 3 9 34 -7z m132 -66 c145 -73 419 -262 562 -388 71 -62 256 -267 280 -310
12 -22 -12 5 -111 120 -105 123 -179 191 -324 300 -160 119 -297 209 -409 268
-114 61 -113 68 2 10z m-2442 -29 c-8 -5 -19 -10 -25 -10 -5 0 -3 5 5 10 8 5
20 10 25 10 6 0 3 -5 -5 -10z m-156 -82 c-128 -66 -308 -183 -419 -272 -38
-30 -71 -53 -74 -51 -2 3 8 14 23 26 14 11 23 25 20 31 -5 7 -2 8 5 4 7 -5 20
-1 29 8 9 9 35 30 57 46 22 16 45 34 52 40 57 47 383 230 411 230 8 0 -40 -28
-104 -62z m2464 -4 c170 -101 217 -133 405 -283 66 -51 138 -114 160 -140 23
-25 83 -89 133 -141 202 -209 261 -301 363 -565 48 -123 36 -114 -18 15 -95
227 -103 240 -220 396 -24 33 -113 128 -198 212 -161 159 -297 267 -528 420
-71 47 -132 88 -135 92 -3 3 -16 14 -30 23 -49 34 -8 16 68 -29z m-986 -226
c-8 -8 -9 -4 -5 13 4 13 8 18 11 10 2 -7 -1 -18 -6 -23z m373 -140 c-5 -20 -4
-21 7 -8 20 24 48 24 48 1 0 -11 4 -22 9 -26 12 -7 8 -29 -17 -82 -10 -24 -22
-40 -26 -36 -4 4 -4 -1 0 -11 5 -14 9 -15 15 -5 4 8 11 10 14 7 9 -9 8 -41 -4
-112 -5 -32 -6 -68 -1 -80 14 -37 59 -78 80 -73 13 3 17 1 13 -9 -7 -20 6 -17
44 9 38 26 43 38 11 29 -19 -5 -16 3 22 49 70 83 97 122 114 163 20 48 20 52
0 35 -10 -8 -8 0 6 24 12 20 26 34 31 31 5 -3 18 5 28 17 l18 23 14 -22 13
-21 33 20 c18 11 33 16 33 10 0 -5 -4 -13 -10 -16 -5 -3 -10 -11 -10 -16 0 -5
12 -1 28 8 l27 18 -18 -28 c-18 -28 -18 -28 0 -18 10 5 29 20 43 33 14 13 34
30 45 38 18 14 18 13 -2 -15 -11 -16 -31 -39 -43 -50 -34 -31 -42 -51 -20 -51
10 0 17 3 15 6 -2 3 5 6 15 6 25 0 10 -27 -30 -56 -16 -12 -30 -27 -30 -33 0
-7 -9 -18 -21 -25 -15 -10 -18 -16 -10 -26 6 -7 8 -16 4 -19 -3 -4 25 -7 63
-8 38 0 78 -4 89 -9 19 -8 19 -9 -2 -9 -13 -1 -23 -5 -23 -11 0 -5 -6 -10 -12
-10 -7 0 -26 -10 -43 -21 -16 -12 -22 -19 -12 -15 9 3 17 2 17 -3 0 -4 24 -2
53 6 28 7 84 16 122 19 l70 6 -40 -21 c-21 -12 -44 -21 -50 -21 -5 0 -19 -8
-30 -16 -19 -15 -17 -16 30 -13 59 3 127 -10 119 -22 -3 -5 5 -9 18 -9 17 0
19 -3 9 -9 -10 -7 -5 -17 25 -45 30 -28 36 -39 26 -45 -11 -7 -9 -13 9 -30 19
-18 20 -21 5 -21 -14 0 -15 -2 -4 -14 7 -7 19 -11 25 -9 7 3 13 1 13 -5 0 -5
23 -19 50 -31 28 -12 50 -26 50 -31 0 -6 9 -10 20 -10 11 0 20 -4 20 -10 0
-12 -47 -12 -75 0 l-20 9 20 1 c26 2 23 3 -117 35 -65 15 -115 32 -112 36 3 5
-1 9 -8 10 -10 0 -10 2 0 6 21 8 14 21 -19 32 -17 6 -28 15 -24 21 3 5 -1 10
-9 10 -9 0 -16 4 -16 9 0 5 -24 16 -52 24 l-53 16 57 -2 c31 -1 54 1 51 6 -2
4 -17 7 -33 7 -16 0 -32 5 -36 11 -3 6 -21 9 -39 7 -44 -5 -64 17 -27 30 25 9
24 10 -15 9 -23 -1 -40 -4 -37 -8 2 -4 -6 -7 -19 -8 -193 -6 -255 -6 -251 1 9
15 -51 4 -78 -14 -14 -10 -36 -18 -48 -18 -11 0 -18 -4 -15 -10 3 -6 -4 -10
-18 -10 -44 0 -159 -98 -197 -168 -11 -20 -29 -50 -39 -67 -10 -16 -17 -33
-15 -36 2 -4 -5 -17 -16 -29 -11 -13 -20 -27 -20 -32 0 -17 -35 -47 -52 -44
-9 1 -26 14 -37 28 -18 22 -21 41 -21 111 0 51 6 98 15 119 8 20 16 47 19 61
6 36 97 157 118 157 10 0 21 8 26 18 12 23 3 92 -12 92 -6 0 -19 9 -29 20 -21
25 -53 26 -61 3 -6 -15 -9 -14 -20 7 -7 14 -20 24 -29 24 -9 -1 -17 2 -17 7 0
17 57 109 63 103 3 -4 9 5 13 20 3 14 10 24 14 21 5 -3 11 4 15 15 3 11 11 20
16 20 5 0 9 6 9 13 0 20 40 55 40 36 1 -9 9 -5 22 11 14 16 22 21 25 13 4 -10
10 -9 26 2 30 21 39 19 32 -7z m-1592 -135 c-7 -2 -21 -2 -30 0 -10 3 -4 5 12
5 17 0 24 -2 18 -5z m-111 -17 c-28 -7 -79 -26 -111 -43 -33 -16 -57 -25 -55
-21 15 24 146 77 189 76 22 0 16 -3 -23 -12z m1063 -13 c-3 -16 -10 -32 -15
-37 -5 -5 -4 7 2 27 13 43 23 50 13 10z m-31 -17 c-3 -15 -8 -25 -11 -23 -2 3
-1 17 3 31 3 15 8 25 11 23 2 -3 1 -17 -3 -31z m-27 -38 c-3 -8 -6 -5 -6 6 -1
11 2 17 5 13 3 -3 4 -12 1 -19z m-1197 -21 c0 -2 -15 -16 -32 -33 l-33 -29 29
33 c28 30 36 37 36 29z m3515 -17 c10 -11 16 -20 13 -20 -3 0 -13 9 -23 20
-10 11 -16 20 -13 20 3 0 13 -9 23 -20z m-2268 -12 c-3 -8 -6 -5 -6 6 -1 11 2
17 5 13 3 -3 4 -12 1 -19z m-1307 -42 c0 -2 -8 -10 -17 -17 -16 -13 -17 -12
-4 4 13 16 21 21 21 13z m1497 -393 c-3 -10 -5 -4 -5 12 0 17 2 24 5 18 2 -7
2 -21 0 -30z m696 -133 c6 -22 -18 -41 -40 -33 -16 6 -17 45 -1 61 14 14 33 1
41 -28z m-669 -30 c-6 -6 -10 -2 -11 12 -2 16 1 18 10 9 7 -7 8 -14 1 -21z
m2183 -152 c-3 -8 -6 -5 -6 6 -1 11 2 17 5 13 3 -3 4 -12 1 -19z m-4650 -174
c-3 -3 -12 -4 -19 -1 -8 3 -5 6 6 6 11 1 17 -2 13 -5z m312 -63 c2 0 -3 -9
-10 -18 -8 -10 -9 -14 -2 -10 26 16 17 -10 -15 -43 -20 -19 -30 -28 -23 -18 9
13 9 18 0 24 -7 4 -9 3 -5 -4 3 -6 2 -14 -4 -17 -8 -5 -7 -12 2 -23 11 -13 11
-14 -1 -7 -11 6 -13 4 -8 -8 3 -8 -1 -21 -9 -27 -8 -7 -14 -9 -14 -5 0 5 -10
0 -22 -11 l-23 -19 19 23 c11 12 26 22 35 23 11 0 9 4 -6 11 -21 10 -22 12 -5
24 16 12 16 13 -1 20 -16 6 -15 9 10 25 17 11 22 19 13 19 -11 1 -10 4 4 15
19 15 19 15 -3 15 -12 0 -20 4 -17 8 4 6 68 9 85 3z m4720 -151 c0 -8 -6 3
-14 25 -8 22 -14 58 -14 80 1 36 2 33 14 -25 8 -36 14 -72 14 -80z m-1003 -13
c123 -49 305 -130 300 -134 -2 -2 -17 2 -33 10 -15 8 -59 26 -98 40 -69 25
-245 105 -234 106 3 1 32 -10 65 -22z m1011 -79 c-3 -7 -5 -2 -5 12 0 14 2 19
5 13 2 -7 2 -19 0 -25z m-4817 -112 c0 -2 -8 -10 -17 -17 -16 -13 -17 -12 -4
4 13 16 21 21 21 13z m4827 -198 c-2 -35 -3 -9 -3 57 0 66 1 94 3 63 2 -32 2
-86 0 -120z m-5226 56 c-25 -8 -47 -12 -49 -9 -5 5 56 23 78 23 8 0 -5 -6 -29
-14z m4602 -204 c5 -4 -6 -10 -24 -14 -18 -3 -34 -4 -37 -1 -3 3 3 5 13 5 14
0 16 3 7 12 -8 8 -15 8 -27 -2 -10 -8 -15 -9 -15 -1 0 6 5 11 12 11 6 0 1 12
-13 26 l-24 27 50 -28 c28 -16 54 -31 58 -35z m17 -50 c8 -5 11 -10 5 -10 -5
0 -17 5 -25 10 -8 5 -10 10 -5 10 6 0 17 -5 25 -10z m89 -46 c8 -7 -54 -2 -79
6 -17 6 -9 7 25 3 28 -3 52 -7 54 -9z m-1355 -94 c-9 -8 -45 41 -38 52 4 5 15
-3 25 -18 10 -16 16 -31 13 -34z m-447 -27 c-3 -10 -5 -4 -5 12 0 17 2 24 5
18 2 -7 2 -21 0 -30z m-188 -117 c-3 -3 -11 5 -18 17 -13 21 -12 21 5 5 10
-10 16 -20 13 -22z m-689 14 c0 -7 6 -7 19 0 22 11 25 3 37 -110 3 -36 12 -80
20 -98 12 -30 17 -33 43 -27 16 3 32 2 35 -3 3 -6 25 -6 57 0 35 6 67 6 100
-2 48 -12 66 -29 32 -31 -11 0 -13 -3 -5 -6 31 -12 4 -20 -90 -26 -57 -4 -129
-14 -161 -22 -72 -20 -84 -14 -127 66 -35 66 -41 126 -20 198 13 48 60 95 60
61z m697 -102 c-3 -7 -5 -2 -5 12 0 14 2 19 5 13 2 -7 2 -19 0 -25z m-92 2 c4
-6 2 -9 -4 -8 -5 2 -17 -6 -26 -17 -17 -20 -10 0 8 23 12 15 14 15 22 2z m702
-7 c5 3 10 -6 11 -19 1 -14 6 -33 12 -43 7 -14 5 -22 -7 -32 -15 -13 -16 -11
-9 14 5 20 3 27 -4 22 -7 -4 -9 3 -5 22 5 21 4 24 -4 13 -6 -9 -11 -10 -11 -3
0 6 -3 20 -6 30 -4 14 -4 15 4 4 5 -7 14 -11 19 -8z m-610 -75 c-3 -8 -6 -5
-6 6 -1 11 2 17 5 13 3 -3 4 -12 1 -19z m597 7 c4 -11 -1 -15 -19 -15 -18 0
-25 -5 -25 -19 0 -11 -4 -23 -10 -26 -5 -3 -14 -20 -19 -38 -9 -32 -9 -32 -10
-4 -1 24 -21 41 -21 17 0 -5 -6 -10 -14 -10 -7 0 -19 -7 -26 -15 -10 -12 -9
-15 6 -15 25 0 5 -17 -25 -22 -30 -4 -39 -25 -14 -31 13 -3 9 -7 -14 -12 -18
-4 -30 -11 -27 -16 3 -5 -1 -9 -8 -9 -7 0 -19 9 -26 20 -8 14 -9 20 -1 20 7 0
9 9 5 24 -5 19 -1 25 15 29 15 4 20 11 15 22 -6 17 9 55 28 67 6 4 19 5 29 2
9 -3 17 -1 17 5 0 6 9 11 20 11 11 0 20 -4 20 -10 0 -5 5 -10 11 -10 6 0 8 7
5 16 -10 25 2 34 44 34 24 0 40 -5 44 -15z m1196 -200 c19 -19 32 -35 29 -35
-3 0 -20 16 -39 35 -19 19 -32 35 -29 35 3 0 20 -16 39 -35z m-1512 -56 c-6
-4 -8 -14 -5 -24 4 -9 3 -14 -2 -11 -5 3 -9 22 -9 42 0 31 1 33 13 17 9 -12
10 -20 3 -24z m1588 -31 l29 -33 -32 29 c-18 17 -33 31 -33 33 0 8 8 1 36 -29z
m-3845 -75 c-12 -20 -14 -14 -5 12 4 9 9 14 11 11 3 -2 0 -13 -6 -23z m96 -75
c-3 -8 -6 -5 -6 6 -1 11 2 17 5 13 3 -3 4 -12 1 -19z m-10 -75 c-3 -10 -5 -2
-5 17 0 19 2 27 5 18 2 -10 2 -26 0 -35z m3062 -23 c0 -9 -4 -8 -9 5 -5 11 -9
27 -9 35 0 9 4 8 9 -5 5 -11 9 -27 9 -35z m8 -42 c-3 -8 -6 -5 -6 6 -1 11 2
17 5 13 3 -3 4 -12 1 -19z m-3080 -90 c-2 -13 -4 -5 -4 17 -1 22 1 32 4 23 2
-10 2 -28 0 -40z"/>
<path d="M6000 4330 c0 -5 5 -10 10 -10 6 0 10 5 10 10 0 6 -4 10 -10 10 -5 0
-10 -4 -10 -10z"/>
<path d="M5768 7723 c7 -3 16 -2 19 1 4 3 -2 6 -13 5 -11 0 -14 -3 -6 -6z"/>
<path d="M5888 7693 c7 -3 16 -2 19 1 4 3 -2 6 -13 5 -11 0 -14 -3 -6 -6z"/>
<path d="M5818 7683 c7 -3 16 -2 19 1 4 3 -2 6 -13 5 -11 0 -14 -3 -6 -6z"/>
<path d="M7476 7525 c92 -69 169 -123 172 -121 2 3 13 -5 24 -17 11 -12 17
-15 13 -7 -4 10 -2 9 8 -2 8 -10 19 -18 26 -18 18 0 -21 39 -74 73 -27 18 -87
60 -133 95 -45 34 -87 62 -92 62 -5 0 -29 14 -53 30 -100 67 -49 23 109 -95z"/>
<path d="M7563 7405 c0 -8 4 -12 9 -9 5 3 6 10 3 15 -9 13 -12 11 -12 -6z"/>
<path d="M3445 7281 c-118 -95 -298 -298 -438 -493 -79 -111 -222 -355 -283
-483 -57 -120 -108 -270 -100 -292 3 -8 2 -12 -3 -9 -11 7 -21 -44 -15 -75 5
-20 4 -21 -6 -9 -10 13 -11 12 -6 -3 3 -10 6 -28 6 -40 1 -12 14 28 29 88 40
153 83 270 151 410 150 310 339 566 609 828 72 70 128 127 124 127 -4 -1 -35
-22 -68 -49z"/>
<path d="M7790 7216 c0 -2 8 -10 18 -17 15 -13 16 -12 3 4 -13 16 -21 21 -21
13z"/>
<path d="M5452 6800 c0 -19 2 -27 5 -17 2 9 2 25 0 35 -3 9 -5 1 -5 -18z"/>
<path d="M5341 6604 c0 -11 3 -14 6 -6 3 7 2 16 -1 19 -3 4 -6 -2 -5 -13z"/>
<path d="M5277 6573 c-2 -5 0 -21 4 -38 7 -29 7 -29 8 8 1 35 -3 46 -12 30z"/>
<path d="M5233 6515 c-3 -9 -3 -18 -1 -21 3 -3 8 4 11 16 6 23 -1 27 -10 5z"/>
<path d="M5262 6500 c0 -14 2 -19 5 -12 2 6 2 18 0 25 -3 6 -5 1 -5 -13z"/>
<path d="M5021 6494 c0 -11 3 -14 6 -6 3 7 2 16 -1 19 -3 4 -6 -2 -5 -13z"/>
<path d="M4430 6399 c-52 -4 -110 -12 -128 -17 -38 -13 -163 -102 -157 -113 3
-4 -11 -19 -30 -35 -41 -32 -39 -45 2 -17 52 36 58 36 18 0 -22 -20 -51 -42
-65 -49 -14 -7 -34 -21 -44 -30 -11 -10 -26 -18 -33 -18 -8 0 -11 -4 -8 -10 3
-6 -4 -10 -16 -10 -20 0 -21 -2 -7 -12 8 -7 36 -47 62 -89 25 -42 61 -89 78
-104 39 -35 123 -67 234 -89 74 -15 88 -15 154 -2 99 21 155 50 221 116 117
115 133 274 39 384 -31 36 -134 86 -177 86 -18 0 -33 5 -33 10 0 6 -3 9 -7 8
-5 0 -51 -4 -103 -9z m-83 -205 l21 -6 -28 -61 c-16 -34 -33 -93 -39 -132 -6
-38 -12 -79 -15 -90 -2 -11 -5 -25 -5 -32 -2 -27 -56 -3 -107 48 -63 62 -64
76 -14 164 50 87 119 127 187 109z m-237 -78 c0 -82 -38 -141 -54 -83 -11 41
-6 74 15 101 29 37 39 33 39 -18z m514 -147 c-10 -12 -32 -30 -49 -41 -18 -12
-12 -4 15 21 49 44 64 53 34 20z m-331 -126 c-7 -2 -19 -2 -25 0 -7 3 -2 5 12
5 14 0 19 -2 13 -5z"/>
<path d="M8860 6336 c0 -2 8 -10 18 -17 15 -13 16 -12 3 4 -13 16 -21 21 -21
13z"/>
<path d="M3871 6314 c0 -11 3 -14 6 -6 3 7 2 16 -1 19 -3 4 -6 -2 -5 -13z"/>
<path d="M8359 6311 c7 -5 11 -13 7 -19 -3 -6 -2 -21 3 -34 4 -12 11 -41 15
-63 6 -35 5 -38 -7 -22 -8 9 -17 17 -20 17 -11 0 -30 -102 -19 -109 5 -3 12
-28 15 -56 3 -27 19 -140 36 -250 47 -304 57 -739 21 -925 -24 -123 -96 -403
-120 -470 -5 -14 -12 -36 -14 -50 -14 -75 -107 -300 -128 -308 -4 -2 -6 -7 -3
-12 3 -4 -2 -13 -10 -20 -8 -7 -15 -21 -15 -32 0 -10 -4 -17 -9 -14 -8 5 -17
-13 -26 -52 -2 -9 2 -11 13 -7 13 5 13 2 -2 -14 -11 -12 -79 -50 -153 -86 -75
-36 -147 -74 -162 -84 -41 -29 -211 -113 -235 -115 -20 -3 -83 -30 -263 -112
-59 -27 -322 -118 -448 -154 -29 -9 -135 -30 -219 -45 -29 -5 -36 -9 -25 -16
11 -7 10 -9 -5 -9 -11 0 -17 -3 -13 -6 3 -4 37 3 74 15 37 11 138 39 223 61
266 70 505 153 494 172 -4 6 -2 8 3 5 6 -4 28 0 48 9 21 8 45 12 53 9 9 -3 13
-3 9 1 -7 7 54 34 81 36 6 1 10 3 8 6 -3 2 46 29 107 59 62 30 134 71 161 90
27 19 79 48 114 65 125 55 237 151 296 253 39 66 118 264 110 277 -4 6 -3 8 3
5 12 -8 34 59 26 81 -4 10 -2 13 5 8 8 -5 10 -2 6 8 -4 9 -1 16 6 16 8 0 11
11 8 29 -2 17 -1 28 4 25 4 -3 8 -3 8 -1 0 2 18 80 39 173 75 321 86 426 85
784 -1 188 -7 347 -14 395 -22 144 -91 380 -119 405 -10 9 -16 21 -13 28 2 6
-2 12 -8 12 -7 0 -10 6 -7 14 6 15 -11 36 -27 36 -6 0 -5 -4 3 -9z m57 -164
c1 -7 6 -28 10 -47 4 -23 3 -32 -3 -25 -6 6 -13 30 -17 55 -4 24 -4 41 0 37 5
-4 9 -13 10 -20z m32 -133 c-3 -14 -5 -12 -10 9 -3 19 -2 25 4 19 6 -6 8 -18
6 -28z m29 -106 c-3 -8 -6 -5 -6 6 -1 11 2 17 5 13 3 -3 4 -12 1 -19z"/>
<path d="M5291 6284 c0 -11 3 -14 6 -6 3 7 2 16 -1 19 -3 4 -6 -2 -5 -13z"/>
<path d="M5398 6223 c5 -21 7 -23 10 -9 2 10 0 22 -6 28 -6 6 -7 0 -4 -19z"/>
<path d="M8325 6241 c-3 -5 -1 -12 5 -16 5 -3 10 1 10 9 0 18 -6 21 -15 7z"/>
<path d="M8511 6224 c0 -11 3 -14 6 -6 3 7 2 16 -1 19 -3 4 -6 -2 -5 -13z"/>
<path d="M8501 6184 c0 -11 3 -14 6 -6 3 7 2 16 -1 19 -3 4 -6 -2 -5 -13z"/>
<path d="M5390 6165 c0 -6 4 -15 9 -20 5 -6 11 -19 14 -30 5 -20 5 -19 6 1 0
11 -6 29 -14 40 -8 10 -15 14 -15 9z"/>
<path d="M3900 6124 c0 -17 17 -36 24 -26 3 5 -1 15 -9 22 -8 7 -15 9 -15 4z"/>
<path d="M3836 6112 c-3 -5 0 -9 7 -10 7 0 23 -4 37 -7 23 -6 23 -6 -4 9 -33
19 -33 19 -40 8z"/>
<path d="M5240 6092 c0 -7 5 -12 11 -12 5 0 7 -5 3 -12 -4 -6 -3 -8 4 -4 6 3
12 -3 15 -16 4 -21 4 -21 6 -2 0 11 -8 29 -19 39 -11 10 -20 13 -20 7z"/>
<path d="M3753 6080 c-52 -8 -99 -31 -86 -43 3 -4 1 -7 -6 -7 -18 0 -73 -58
-66 -70 3 -6 -1 -7 -10 -4 -9 4 -15 2 -13 -4 2 -5 -11 -25 -27 -43 -37 -41
-48 -66 -32 -73 7 -2 2 -5 -10 -5 -13 -1 -23 -7 -23 -13 -1 -18 -36 -58 -52
-59 -16 -2 59 -18 85 -18 10 -1 15 4 12 9 -3 6 -2 10 4 10 6 0 8 7 5 15 -4 9
0 15 10 15 20 0 17 22 -4 32 -12 5 -11 7 3 7 18 1 57 31 40 31 -4 0 3 10 17
21 14 11 18 18 10 14 -8 -4 -6 0 5 9 11 8 25 19 30 23 33 26 124 81 144 88 54
17 126 55 104 55 -12 0 -25 5 -28 10 -7 11 -35 11 -112 0z"/>
<path d="M5170 5964 c0 -8 5 -12 10 -9 6 4 8 11 5 16 -9 14 -15 11 -15 -7z"/>
<path d="M4764 5917 c-38 -22 -114 -89 -109 -97 3 -5 2 -10 -2 -12 -5 -1 -25
-24 -46 -50 -21 -26 -58 -62 -82 -79 -49 -35 -53 -45 -11 -30 22 9 74 59 245
235 37 38 39 52 5 33z"/>
<path d="M9165 5850 c3 -5 8 -10 11 -10 2 0 4 5 4 10 0 6 -5 10 -11 10 -5 0
-7 -4 -4 -10z"/>
<path d="M3940 5805 c15 -18 14 -18 -28 -5 -29 8 -32 7 -21 -6 7 -8 18 -13 24
-10 7 2 18 0 26 -6 10 -7 -3 -8 -41 -4 -51 5 -53 5 -30 -9 50 -29 73 -36 80
-26 3 6 17 7 30 4 l25 -7 -25 -7 c-14 -5 -4 -6 25 -2 28 3 57 9 65 14 9 5 22
1 34 -9 13 -11 17 -12 11 -3 -6 11 -4 13 9 8 10 -4 22 -7 27 -7 6 0 8 -4 5 -8
-3 -5 9 -6 27 -3 l32 5 -40 8 c-21 5 -43 14 -47 21 -6 9 -10 8 -18 -3 -9 -13
-14 -8 -11 12 0 3 -7 5 -17 4 -9 -2 -24 1 -32 5 -8 4 -23 10 -33 13 -10 3 -15
10 -12 16 4 6 -1 7 -11 3 -13 -5 -15 -3 -9 7 5 9 4 11 -4 6 -8 -6 -9 -12 -2
-20 8 -9 7 -13 -4 -13 -14 0 -19 10 -16 30 0 4 -6 7 -15 7 -14 0 -14 -3 -4
-15z m55 -45 c8 -13 -5 -13 -25 0 -13 8 -13 10 2 10 9 0 20 -4 23 -10z m58
-17 c-7 -2 -21 -2 -30 0 -10 3 -4 5 12 5 17 0 24 -2 18 -5z"/>
<path d="M9137 5813 c-10 -9 -9 -23 1 -23 5 0 9 7 9 15 0 17 -1 18 -10 8z"/>
<path d="M9116 5775 c4 -22 10 -89 14 -150 6 -92 7 -100 10 -50 2 33 3 77 2
98 -1 20 2 37 8 37 5 0 9 -3 9 -7 -4 -24 2 -53 11 -53 6 0 6 9 1 23 -4 12 -6
37 -4 55 4 30 2 33 -16 27 -16 -5 -21 -2 -21 12 0 10 -5 25 -11 33 -8 11 -9 4
-3 -25z m38 -40 c-4 -8 -11 -12 -16 -9 -6 4 -5 10 3 15 19 12 19 11 13 -6z"/>
<path d="M2572 5730 c0 -14 2 -19 5 -12 2 6 2 18 0 25 -3 6 -5 1 -5 -13z"/>
<path d="M3413 5727 c-3 -5 0 -12 6 -16 7 -5 2 -12 -14 -19 -32 -15 -24 -32
16 -32 32 0 89 36 89 56 0 14 -89 24 -97 11z"/>
<path d="M2671 5704 c0 -11 3 -14 6 -6 3 7 2 16 -1 19 -3 4 -6 -2 -5 -13z"/>
<path d="M4020 5710 c8 -5 22 -10 30 -10 13 0 13 1 0 10 -8 5 -22 10 -30 10
-13 0 -13 -1 0 -10z"/>
<path d="M4228 5713 c7 -3 16 -2 19 1 4 3 -2 6 -13 5 -11 0 -14 -3 -6 -6z"/>
<path d="M4250 5700 c-12 -7 -11 -9 5 -9 11 0 34 -3 50 -7 17 -4 26 -3 22 2
-4 4 -13 9 -20 10 -7 1 -19 5 -27 8 -8 3 -22 2 -30 -4z"/>
<path d="M5660 5703 c0 -5 11 -8 24 -8 13 0 22 3 19 8 -2 4 -13 7 -24 7 -10 0
-19 -3 -19 -7z"/>
<path d="M5734 5665 c10 -8 24 -11 29 -8 6 4 2 10 -9 14 -31 12 -40 9 -20 -6z"/>
<path d="M3357 5648 c-7 -5 -2 -8 13 -9 14 -1 37 -3 52 -4 15 -1 32 1 39 5 6
5 -12 9 -41 11 -28 2 -57 1 -63 -3z"/>
<path d="M5786 5652 c-7 -12 186 -104 304 -146 52 -18 104 -37 115 -41 11 -4
0 11 -25 33 -25 23 -52 42 -60 42 -10 1 -11 3 -3 7 7 2 -17 21 -55 40 -37 20
-74 41 -82 47 -14 12 -109 12 -138 1 -7 -2 -11 -1 -8 4 3 5 -1 12 -10 15 -21
8 -32 8 -38 -2z"/>
<path d="M4000 5610 c14 -4 32 -8 40 -9 13 -1 13 0 0 9 -8 5 -26 9 -40 9 l-25
-1 25 -8z"/>
<path d="M8082 5580 c0 -14 2 -19 5 -12 2 6 2 18 0 25 -3 6 -5 1 -5 -13z"/>
<path d="M3949 5573 c-13 -16 -12 -17 3 -5 10 8 17 9 20 2 2 -6 21 -12 43 -15
35 -4 36 -3 10 4 -27 8 -28 9 -6 10 32 1 25 7 -20 15 -28 5 -39 2 -50 -11z"/>
<path d="M2641 5554 c0 -11 3 -14 6 -6 3 7 2 16 -1 19 -3 4 -6 -2 -5 -13z"/>
<path d="M5695 5550 c-16 -4 -25 -8 -20 -9 6 0 15 -11 20 -23 6 -13 21 -25 34
-26 13 -2 21 0 17 6 -3 6 0 13 6 15 7 3 3 6 -9 6 -13 1 -23 6 -23 12 0 6 9 9
19 6 14 -3 18 -1 14 9 -6 15 -12 16 -58 4z"/>
<path d="M5610 5541 c0 -5 7 -11 15 -15 8 -3 15 -1 15 3 0 5 -7 11 -15 15 -8
3 -15 1 -15 -3z"/>
<path d="M8091 5524 c0 -11 3 -14 6 -6 3 7 2 16 -1 19 -3 4 -6 -2 -5 -13z"/>
<path d="M4353 5523 c15 -2 37 -2 50 0 12 2 0 4 -28 4 -27 0 -38 -2 -22 -4z"/>
<path d="M4500 5521 c0 -4 11 -6 25 -3 14 2 25 6 25 8 0 2 -11 4 -25 4 -14 0
-25 -4 -25 -9z"/>
<path d="M5787 5523 c-4 -3 -7 -9 -7 -13 0 -11 52 -33 83 -36 27 -2 27 -1 11
17 -9 11 -26 19 -36 19 -11 0 -16 5 -13 10 7 11 -28 14 -38 3z"/>
<path d="M4018 5503 c7 -3 16 -2 19 1 4 3 -2 6 -13 5 -11 0 -14 -3 -6 -6z"/>
<path d="M3968 5493 c6 -2 18 -2 25 0 6 3 1 5 -13 5 -14 0 -19 -2 -12 -5z"/>
<path d="M9232 5480 c0 -14 2 -19 5 -12 2 6 2 18 0 25 -3 6 -5 1 -5 -13z"/>
<path d="M3928 5483 c7 -3 16 -2 19 1 4 3 -2 6 -13 5 -11 0 -14 -3 -6 -6z"/>
<path d="M2631 5454 c0 -11 3 -14 6 -6 3 7 2 16 -1 19 -3 4 -6 -2 -5 -13z"/>
<path d="M3961 5451 c-8 -5 -21 -7 -30 -4 -13 4 -14 3 -2 -5 13 -9 41 -3 60
14 9 8 -15 3 -28 -5z"/>
<path d="M3849 5425 c-3 -2 -14 -6 -25 -8 -40 -8 -74 -19 -74 -26 0 -3 -25 -7
-56 -8 -70 -2 -107 -11 -99 -23 4 -6 11 -7 17 -4 7 4 8 2 4 -4 -4 -6 -13 -9
-21 -5 -8 3 -15 0 -15 -7 0 -6 -5 -8 -10 -5 -6 4 -10 3 -9 -2 1 -4 0 -11 -1
-15 -1 -5 -3 -14 -4 -20 -1 -7 -7 -12 -14 -11 -6 2 -9 -4 -6 -12 4 -10 0 -15
-11 -15 -9 0 -14 -4 -10 -9 3 -5 1 -12 -5 -16 -6 -4 -8 -11 -5 -16 4 -5 -4 -9
-17 -9 -17 0 -19 -3 -9 -9 14 -9 7 -31 -11 -31 -6 0 -18 -8 -27 -18 -9 -10
-25 -24 -36 -31 l-20 -13 20 7 c11 4 61 20 112 36 78 25 279 112 218 95 -17
-5 -16 -3 5 15 20 16 21 18 4 10 -11 -5 -30 -8 -42 -4 -11 3 -37 0 -57 -7 -20
-7 -38 -10 -41 -7 -6 5 158 65 204 73 18 4 30 9 27 12 -2 3 0 11 6 19 6 7 8
14 3 14 -5 1 -13 2 -19 4 -5 1 -20 3 -33 3 -13 1 -21 6 -18 10 3 5 20 7 38 5
26 -4 30 -2 18 7 -12 9 -10 10 9 5 14 -4 21 -3 18 3 -4 5 4 8 18 6 14 -1 23 2
19 7 -5 9 -37 12 -45 4z"/>
<path d="M6000 5410 c0 -5 12 -13 28 -17 l27 -6 -30 -13 c-16 -7 -23 -13 -14
-14 8 0 24 6 34 14 18 13 17 14 -13 30 -18 9 -32 12 -32 6z"/>
<path d="M5662 5402 c-19 -13 2 -64 23 -56 8 3 15 10 15 16 0 5 4 7 9 3 17
-10 21 13 5 29 -17 18 -32 20 -52 8z"/>
<path d="M3870 5390 c0 -5 -8 -6 -17 -3 -16 6 -16 5 -5 -10 13 -15 47 -13 37
3 -3 5 1 11 7 13 8 3 6 6 -4 6 -10 1 -18 -3 -18 -9z"/>
<path d="M5780 5392 c0 -7 -12 -17 -26 -22 -16 -6 -22 -14 -18 -22 6 -9 9 -9
12 0 3 9 9 8 25 -3 24 -16 41 -20 33 -6 -10 16 48 -2 64 -20 16 -19 60 -35 60
-22 -1 18 -48 52 -88 62 -23 7 -46 19 -51 29 -6 10 -11 12 -11 4z"/>
<path d="M4448 5363 c12 -2 30 -2 40 0 9 3 -1 5 -23 4 -22 0 -30 -2 -17 -4z"/>
<path d="M4340 5350 c-20 -6 -21 -8 -5 -8 11 0 34 4 50 8 27 7 27 8 5 8 -14 0
-36 -4 -50 -8z"/>
<path d="M6014 5335 c11 -8 26 -15 33 -15 22 0 14 8 -19 19 -30 10 -31 9 -14
-4z"/>
<path d="M6030 5291 c13 -9 13 -11 -2 -11 -33 0 -18 -20 30 -41 26 -11 59 -27
75 -35 15 -9 27 -12 27 -9 0 4 7 -1 16 -10 10 -10 24 -13 36 -9 14 4 18 2 14
-5 -4 -6 -3 -11 2 -11 23 0 18 16 -15 48 -34 31 -35 34 -13 28 14 -3 19 -3 12
0 -6 3 -9 10 -6 16 3 5 0 9 -7 7 -28 -3 -40 1 -33 13 4 6 3 9 -2 6 -9 -6 -94
5 -129 17 -16 6 -17 5 -5 -4z m175 -101 c3 -5 1 -10 -4 -10 -6 0 -11 5 -11 10
0 6 2 10 4 10 3 0 8 -4 11 -10z"/>
<path d="M3800 5275 c-33 -19 -21 -19 21 0 19 8 27 14 19 14 -8 0 -26 -6 -40
-14z"/>
<path d="M6485 5261 c-3 -5 -2 -12 3 -15 5 -3 9 1 9 9 0 17 -3 19 -12 6z"/>
<path d="M3470 5118 c-79 -29 -138 -54 -131 -56 23 -8 -50 -33 -73 -26 -19 6
-18 4 4 -15 l25 -21 -32 16 c-31 14 -36 13 -170 -36 -76 -28 -211 -87 -301
-131 -158 -78 -162 -81 -156 -107 22 -101 58 -223 86 -293 l32 -82 33 37 c36
39 42 39 17 1 -9 -14 -12 -25 -7 -25 5 0 8 -13 5 -30 -4 -28 -22 -43 -22 -18
0 6 -2 9 -5 6 -3 -3 -3 -13 1 -22 5 -13 27 3 103 76 103 99 182 159 299 227
67 39 81 55 49 56 -7 1 -11 6 -10 11 1 7 -8 9 -22 6 -14 -2 -23 -8 -20 -12 3
-5 -3 -7 -12 -6 -10 2 -47 -15 -83 -36 -36 -21 -54 -29 -41 -18 13 11 54 37
90 57 36 21 68 41 69 45 2 4 8 6 12 3 5 -3 11 -1 15 4 8 13 -33 5 -51 -10 -9
-7 -14 -7 -14 -1 0 5 7 12 15 16 13 5 13 9 3 26 -11 16 -10 22 7 34 17 13 18
15 3 16 -22 0 -30 14 -34 63 -2 23 -7 48 -9 56 -3 8 0 18 7 22 9 6 9 11 -1 23
-16 19 -1 21 19 4 12 -11 12 -10 2 3 -10 13 -7 17 21 26 41 12 65 -5 40 -29
-13 -14 -13 -16 2 -22 9 -3 13 -2 10 4 -3 6 3 10 15 10 13 0 19 -4 14 -12 -5
-7 -3 -8 5 -4 7 5 10 10 7 14 -8 7 27 31 37 25 5 -3 1 -14 -9 -24 -16 -18 -16
-19 4 -19 27 0 28 -8 5 -26 -17 -12 -17 -13 -1 -14 9 0 20 5 24 11 3 6 17 9
30 6 13 -2 21 -1 19 3 -8 12 17 27 58 34 20 4 37 12 37 18 0 6 7 20 17 30 15
17 15 18 -3 19 -27 2 -27 2 -54 -6 -21 -5 -20 -3 8 14 18 12 35 28 38 35 3 8
12 12 20 9 16 -6 19 8 4 25 -7 9 -7 9 2 2 16 -14 31 -13 22 2 -4 7 -3 8 4 4 7
-4 26 6 44 23 18 17 31 31 28 30 -3 0 -70 -23 -150 -51z m-140 -98 c0 -5 -5
-10 -11 -10 -5 0 -7 5 -4 10 3 6 8 10 11 10 2 0 4 -4 4 -10z m34 -29 c-10 -10
-21 -17 -23 -15 -6 6 20 34 32 34 6 0 2 -8 -9 -19z"/>
<path d="M3638 5163 c7 -3 16 -2 19 1 4 3 -2 6 -13 5 -11 0 -14 -3 -6 -6z"/>
<path d="M5890 5161 c0 -6 13 -18 29 -27 17 -10 28 -21 26 -25 -3 -4 14 -14
37 -23 32 -13 43 -14 52 -5 8 9 8 10 -2 5 -7 -4 -15 -1 -18 8 -6 17 -94 76
-112 76 -7 0 -12 -4 -12 -9z"/>
<path d="M3295 5050 c-3 -6 1 -7 9 -4 18 7 21 14 7 14 -6 0 -13 -4 -16 -10z"/>
<path d="M3495 5050 c-3 -5 3 -10 15 -10 12 0 18 5 15 10 -3 6 -10 10 -15 10
-5 0 -12 -4 -15 -10z"/>
<path d="M3195 4990 c-3 -6 1 -7 9 -4 18 7 21 14 7 14 -6 0 -13 -4 -16 -10z"/>
<path d="M6466 4988 c3 -5 10 -6 15 -3 13 9 11 12 -6 12 -8 0 -12 -4 -9 -9z"/>
<path d="M6540 4886 c0 -2 7 -7 16 -10 8 -3 12 -2 9 4 -6 10 -25 14 -25 6z"/>
<path d="M5840 4841 c0 -6 4 -13 10 -16 6 -3 7 1 4 9 -7 18 -14 21 -14 7z"/>
<path d="M6013 4803 c0 -9 4 -10 14 -2 7 6 13 12 13 14 0 1 -6 2 -13 2 -8 0
-14 -6 -14 -14z"/>
<path d="M6269 4756 c19 -19 37 -33 42 -31 4 3 10 -5 13 -18 3 -12 29 -47 56
-77 49 -54 57 -46 15 17 -12 18 -25 30 -29 26 -4 -4 -4 0 0 10 4 11 0 19 -10
23 -9 3 -14 10 -11 15 3 4 -3 13 -14 18 -14 8 -21 8 -24 -2 -3 -6 -6 -1 -6 12
-1 16 -5 21 -16 17 -8 -3 -15 -1 -15 3 0 5 -8 12 -17 16 -10 3 -3 -9 16 -29z"/>
<path d="M8041 4774 c0 -11 3 -14 6 -6 3 7 2 16 -1 19 -3 4 -6 -2 -5 -13z"/>
<path d="M6092 4771 c37 -95 104 -228 116 -228 13 0 13 2 0 11 -12 10 -52 115
-53 141 -1 17 -31 55 -38 48 -4 -3 -7 3 -7 15 0 12 -5 22 -11 22 -6 0 -9 -4
-7 -9z"/>
<path d="M3577 4747 c4 -6 0 -8 -10 -4 -9 3 -23 0 -31 -8 -7 -8 -16 -11 -20
-8 -3 4 -6 -1 -6 -9 0 -10 8 -14 23 -13 12 1 28 3 35 4 6 0 12 8 12 17 0 8 4
13 8 10 4 -2 14 -1 22 5 8 5 11 9 5 10 -5 0 -18 2 -28 4 -10 2 -14 -1 -10 -8z
m-12 -17 c3 -5 -1 -10 -10 -10 -9 0 -13 5 -10 10 3 6 8 10 10 10 2 0 7 -4 10
-10z"/>
<path d="M6408 4670 c21 -38 27 -38 28 0 1 24 -1 28 -12 19 -10 -8 -14 -9 -14
0 0 6 -4 11 -10 11 -5 0 -1 -13 8 -30z"/>
<path d="M3495 4680 c-3 -5 1 -10 10 -10 9 0 13 5 10 10 -3 6 -8 10 -10 10 -2
0 -7 -4 -10 -10z"/>
<path d="M6200 4524 c0 -1 7 -17 15 -35 15 -31 16 -32 10 -6 -4 19 -2 26 4 22
6 -3 8 0 5 8 -4 11 -34 21 -34 11z"/>
<path d="M9071 4348 c0 -9 -4 -25 -7 -35 -5 -17 -5 -17 6 0 6 10 9 25 7 35 -4
15 -5 15 -6 0z"/>
<path d="M2571 4265 c0 -5 6 -21 14 -35 8 -14 14 -20 14 -15 0 6 -6 21 -14 35
-8 14 -14 21 -14 15z"/>
<path d="M3650 4191 c-12 -24 -13 -34 -1 -27 9 6 22 46 15 46 -2 0 -8 -9 -14
-19z"/>
<path d="M3701 4124 c0 -11 3 -14 6 -6 3 7 2 16 -1 19 -3 4 -6 -2 -5 -13z"/>
<path d="M2620 4125 c0 -5 5 -17 10 -25 5 -8 10 -10 10 -5 0 6 -5 17 -10 25
-5 8 -10 11 -10 5z"/>
<path d="M8645 4082 c-33 -19 -121 -74 -195 -120 -74 -47 -189 -116 -255 -155
-66 -38 -127 -75 -135 -82 -8 -7 -43 -27 -77 -46 -35 -18 -61 -34 -59 -36 5
-5 112 47 166 82 79 50 158 85 176 78 12 -4 15 -3 10 5 -4 7 -2 10 6 7 8 -3
35 6 61 20 63 33 70 31 27 -6 -19 -17 -26 -26 -14 -20 11 5 33 12 47 15 14 2
38 13 54 24 15 11 54 36 86 57 31 20 61 44 67 54 5 9 10 12 10 7 0 -5 6 -3 14
3 7 6 11 22 8 36 -2 15 0 25 7 25 7 0 10 4 7 9 -3 4 3 16 14 26 11 10 17 22
13 28 -4 6 0 8 10 4 17 -6 34 8 19 17 -4 2 -34 -12 -67 -32z m-12 -105 c-3 -5
-10 -4 -15 1 -6 6 -7 16 -3 22 6 9 9 9 16 -1 4 -7 5 -17 2 -22z"/>
<path d="M3076 3952 c-3 -5 3 -17 13 -27 17 -15 19 -15 17 -1 -3 22 -22 40
-30 28z"/>
<path d="M7625 3810 c-3 -5 -1 -10 4 -10 6 0 11 5 11 10 0 6 -2 10 -4 10 -3 0
-8 -4 -11 -10z"/>
<path d="M7394 3774 c-18 -14 -18 -15 4 -4 12 6 22 13 22 15 0 8 -5 6 -26 -11z"/>
<path d="M7481 3710 c-24 -16 -46 -32 -50 -36 -11 -12 63 28 88 47 36 29 12
21 -38 -11z"/>
<path d="M7560 3670 c-9 -6 -10 -10 -3 -10 6 0 15 5 18 10 8 12 4 12 -15 0z"/>
<path d="M3135 3640 c10 -11 20 -20 23 -20 3 0 -3 9 -13 20 -10 11 -20 20 -23
20 -3 0 3 -9 13 -20z"/>
<path d="M3300 3526 c0 -3 9 -10 20 -16 11 -6 20 -8 20 -6 0 3 -9 10 -20 16
-11 6 -20 8 -20 6z"/>
<path d="M7430 3500 c-8 -5 -10 -10 -5 -10 6 0 17 5 25 10 8 5 11 10 5 10 -5
0 -17 -5 -25 -10z"/>
<path d="M3350 3497 c0 -10 205 -115 305 -157 207 -87 596 -212 612 -197 2 3
-11 8 -29 12 -18 4 -37 11 -43 15 -5 5 -70 27 -144 49 -224 69 -409 139 -551
209 -161 80 -150 75 -150 69z"/>
<path d="M6688 3463 c7 -3 16 -2 19 1 4 3 -2 6 -13 5 -11 0 -14 -3 -6 -6z"/>
<path d="M6618 3443 c7 -3 16 -2 19 1 4 3 -2 6 -13 5 -11 0 -14 -3 -6 -6z"/>
<path d="M6543 3433 c-18 -2 -33 -9 -33 -14 0 -9 35 -4 75 12 21 8 12 9 -42 2z"/>
<path d="M6435 3410 l-30 -8 30 0 c17 0 39 3 50 8 l20 9 -20 -1 c-11 0 -33 -4
-50 -8z"/>
<path d="M6218 3363 c7 -3 16 -2 19 1 4 3 -2 6 -13 5 -11 0 -14 -3 -6 -6z"/>
<path d="M3058 3292 c56 -55 151 -111 304 -182 85 -39 93 -46 70 -51 -26 -5
-4 -14 140 -55 9 -3 29 -2 44 2 23 6 13 12 -77 44 -191 67 -394 173 -493 257
-25 22 -21 16 12 -15z m437 -242 c3 -6 -1 -7 -9 -4 -18 7 -21 14 -7 14 6 0 13
-4 16 -10z"/>
<path d="M6115 3330 c3 -5 14 -10 23 -10 15 0 15 2 2 10 -20 13 -33 13 -25 0z"/>
<path d="M2990 3305 c13 -14 26 -25 28 -25 3 0 -5 11 -18 25 -13 14 -26 25
-28 25 -3 0 5 -11 18 -25z"/>
<path d="M6010 3320 c-11 -8 -7 -9 15 -4 37 8 45 14 19 14 -10 0 -26 -5 -34
-10z"/>
<path d="M3030 3256 c0 -2 8 -10 18 -17 15 -13 16 -12 3 4 -13 16 -21 21 -21
13z"/>
<path d="M6528 3233 c7 -3 16 -2 19 1 4 3 -2 6 -13 5 -11 0 -14 -3 -6 -6z"/>
<path d="M3069 3207 c16 -20 71 -61 71 -54 0 3 -19 20 -42 38 -24 19 -37 26
-29 16z"/>
<path d="M6098 3143 c6 -2 18 -2 25 0 6 3 1 5 -13 5 -14 0 -19 -2 -12 -5z"/>
<path d="M6058 3133 c7 -3 16 -2 19 1 4 3 -2 6 -13 5 -11 0 -14 -3 -6 -6z"/>
<path d="M4328 3123 c7 -3 16 -2 19 1 4 3 -2 6 -13 5 -11 0 -14 -3 -6 -6z"/>
<path d="M4378 3113 c7 -3 16 -2 19 1 4 3 -2 6 -13 5 -11 0 -14 -3 -6 -6z"/>
<path d="M5958 3113 c7 -3 16 -2 19 1 4 3 -2 6 -13 5 -11 0 -14 -3 -6 -6z"/>
<path d="M5908 3103 c7 -3 16 -2 19 1 4 3 -2 6 -13 5 -11 0 -14 -3 -6 -6z"/>
<path d="M4555 3090 c-2 -4 1 -7 8 -8 7 0 37 -5 67 -11 73 -15 685 -27 693
-14 4 6 -97 10 -271 11 -157 1 -324 7 -385 15 -60 7 -110 10 -112 7z"/>
<path d="M3288 3043 c7 -3 16 -2 19 1 4 3 -2 6 -13 5 -11 0 -14 -3 -6 -6z"/>
<path d="M5408 3043 c12 -2 30 -2 40 0 9 3 -1 5 -23 4 -22 0 -30 -2 -17 -4z"/>
<path d="M4288 3013 c6 -2 18 -2 25 0 6 3 1 5 -13 5 -14 0 -19 -2 -12 -5z"/>
<path d="M4378 2993 c7 -3 16 -2 19 1 4 3 -2 6 -13 5 -11 0 -14 -3 -6 -6z"/>
<path d="M3868 2953 c7 -3 16 -2 19 1 4 3 -2 6 -13 5 -11 0 -14 -3 -6 -6z"/>
<path d="M3908 2943 c7 -3 16 -2 19 1 4 3 -2 6 -13 5 -11 0 -14 -3 -6 -6z"/>
<path d="M3948 2933 c6 -2 18 -2 25 0 6 3 1 5 -13 5 -14 0 -19 -2 -12 -5z"/>
<path d="M4008 2923 c7 -3 16 -2 19 1 4 3 -2 6 -13 5 -11 0 -14 -3 -6 -6z"/>
<path d="M4058 2913 c7 -3 16 -2 19 1 4 3 -2 6 -13 5 -11 0 -14 -3 -6 -6z"/>
<path d="M2316 5837 c3 -10 9 -15 12 -12 3 3 0 11 -7 18 -10 9 -11 8 -5 -6z"/>
<path d="M9100 4071 c0 -5 7 -11 14 -14 10 -4 13 -1 9 9 -6 15 -23 19 -23 5z"/>
<path d="M9095 3540 c-3 -5 -2 -10 4 -10 5 0 13 5 16 10 3 6 2 10 -4 10 -5 0
-13 -4 -16 -10z"/>
<path d="M8855 2940 c-3 -5 -1 -10 4 -10 6 0 11 5 11 10 0 6 -2 10 -4 10 -3 0
-8 -4 -11 -10z"/>
<path d="M8826 2873 c-6 -14 -5 -15 5 -6 7 7 10 15 7 18 -3 3 -9 -2 -12 -12z"/>
<path d="M2535 2750 c-16 -17 -16 -20 -3 -15 9 4 19 13 22 21 7 19 2 18 -19
-6z"/>
<path d="M5142 2197 c10 -8 15 -17 11 -20 -3 -4 4 -7 16 -7 36 0 23 34 -14 38
-27 2 -28 1 -13 -11z"/>
<path d="M5450 2050 c0 -6 7 -13 15 -16 8 -4 15 -11 15 -18 0 -6 15 -20 32
-31 18 -11 45 -28 61 -38 23 -14 32 -15 43 -6 12 10 12 15 -3 32 -10 11 -31
26 -48 34 -16 7 -37 17 -45 22 -62 34 -70 36 -70 21z"/>
<path d="M5450 1985 c7 -9 15 -13 17 -11 7 7 -7 26 -19 26 -6 0 -6 -6 2 -15z"/>
<path d="M5890 1800 c0 -5 5 -10 11 -10 5 0 7 5 4 10 -3 6 -8 10 -11 10 -2 0
-4 -4 -4 -10z"/>
<path d="M3821 2166 c2 -2 22 -6 44 -9 28 -5 34 -4 20 3 -19 8 -73 14 -64 6z"/>
<path d="M3928 2143 c7 -3 16 -2 19 1 4 3 -2 6 -13 5 -11 0 -14 -3 -6 -6z"/>
<path d="M4624 2020 c17 -6 36 -5 45 0 11 7 3 9 -29 9 -42 -1 -43 -1 -16 -9z"/>
<path d="M6473 2213 c9 -2 25 -2 35 0 9 3 1 5 -18 5 -19 0 -27 -2 -17 -5z"/>
<path d="M6378 2203 c7 -3 16 -2 19 1 4 3 -2 6 -13 5 -11 0 -14 -3 -6 -6z"/>
<path d="M6418 2203 c7 -3 16 -2 19 1 4 3 -2 6 -13 5 -11 0 -14 -3 -6 -6z"/>
<path d="M4186 1847 c3 -10 9 -15 12 -12 3 3 0 11 -7 18 -10 9 -11 8 -5 -6z"/>
<path d="M5285 1181 c-3 -5 -1 -12 5 -16 5 -3 10 1 10 9 0 18 -6 21 -15 7z"/>
<path d="M1890 1550 c0 -5 5 -10 11 -10 5 0 7 5 4 10 -3 6 -8 10 -11 10 -2 0
-4 -4 -4 -10z"/>
</g>
</svg>
